<svg width="26" height="21" viewBox="0 0 26 21" fill="none" xmlns="http://www.w3.org/2000/svg">
<g id="Group">
<path id="Vector" opacity="0.4" d="M12.5381 20.0185C19.4627 20.0185 25.0762 15.5372 25.0762 10.0093C25.0762 4.4813 19.4627 0 12.5381 0C5.6135 0 0 4.4813 0 10.0093C0 15.5372 5.6135 20.0185 12.5381 20.0185Z" fill="#72B0FE"/>
<path id="Vector_2" d="M10.7571 13.5926C10.5063 13.5926 10.2681 13.5125 10.0925 13.3724L6.54419 10.5398C6.18058 10.2495 6.18058 9.76906 6.54419 9.47879C6.90779 9.18852 7.50962 9.18852 7.87323 9.47879L10.7571 11.7809L17.2016 6.63616C17.5652 6.34589 18.1671 6.34589 18.5307 6.63616C18.8943 6.92643 18.8943 7.40687 18.5307 7.69714L11.4216 13.3724C11.246 13.5125 11.0078 13.5926 10.7571 13.5926Z" fill="#1C7EF7"/>
</g>
</svg>
