<svg width="95" height="72" viewBox="0 0 95 72" fill="none" xmlns="http://www.w3.org/2000/svg">
<g id="&#240;&#159;&#166;&#134; icon &#34;food silverware&#34;">
<path id="Vector" d="M88.7922 0H94.1533V68.2105C94.1533 70.3035 90.9531 72 87.0051 72H83.431C79.4831 72 76.2828 70.3035 76.2828 68.2105V49.2632H69.1346C69.1346 5.68421 88.7922 0 88.7922 0ZM26.2455 72H22.6714C18.7235 72 15.5232 70.3035 15.5232 68.2105V30.3158C13.1404 30.3158 10.7579 30.3158 7.77923 28.5789C4.80093 26.8422 2.12036 23.3685 0.333317 19.1054C-1.45373 11.3684 4.80094 0 4.80094 0L9.2682 18.0002H11.0556L17.3103 0.000187924L23.5649 18.0002H25.352L31.6066 0L37.8613 18.0002H39.6484L44.116 0C44.116 0 50.3706 11.3684 48.5836 19.1052C46.7966 23.3684 44.116 26.8422 41.1377 28.5789C38.159 30.3158 35.7765 30.3158 33.3937 30.3158V68.2105C33.3937 70.3035 30.1935 72 26.2455 72Z" fill="black"/>
</g>
</svg>
