<svg width="89" height="93" viewBox="0 0 89 93" fill="none" xmlns="http://www.w3.org/2000/svg">
<g id="&#240;&#159;&#166;&#134; emoji &#34;money bag&#34;">
<path id="Vector" d="M85.3134 55.6961C83.8444 53.494 82.0686 51.4082 80.2184 49.4077C77.5036 46.4612 74.6028 43.6311 72.1204 40.5528C69.6379 37.4822 67.7599 34.2489 64.5894 31.5583C61.7351 29.0615 58.1277 27.3789 54.3251 26.6501C52.8933 26.2236 51.573 25.5025 50.6247 24.7349H51.0989V21.6411H50.3923C50.4016 20.8657 50.5038 20.6176 50.7177 20.1756C52.1588 16.7251 53.479 13.3057 54.9201 9.85518C55.2548 9.01776 55.5802 8.23462 56.2496 7.58329C57.0213 6.74587 58.2393 6.16433 59.1225 5.32691C60.0058 4.48949 60.3405 3.07829 59.2341 2.33392C57.356 2.05478 55.3664 2.23312 53.5906 2.8922C54.1391 2.05478 53.479 0.930465 52.4842 0.465233C51.4893 -9.24334e-08 50.2714 0 49.165 0C46.5059 0 43.7446 0.0930464 41.0948 0.0930464C39.8769 0.0930464 38.4358 0.186093 37.6641 0.930465C37.2178 1.30265 37.1155 1.76788 36.6692 2.14007C35.4513 3.25663 33.3501 2.88444 31.5835 2.6053C29.817 2.32616 27.4927 2.51226 26.9348 4.001C26.8233 4.55928 26.9348 5.02451 27.0464 5.58279C28.4875 10.429 31.1094 15.8334 34.6424 19.8344C35.2095 20.6176 35.256 20.8579 35.6 21.6333H35.2932V24.3782C35.2932 24.7969 33.2943 25.5258 32.9224 25.6963C28.5433 27.6891 24.5733 31.0078 21.0682 33.9232C17.3585 37.0015 13.9742 40.3434 10.9433 43.9024C5.94124 49.7721 0.641701 56.6653 0.055963 64.0083C-0.26015 67.9085 0.762567 71.9947 3.13341 75.3832C5.85756 79.2756 10.0879 82.5323 14.2345 85.3779C18.3719 88.2159 23.2066 90.3637 28.348 91.6276C28.4038 91.6431 28.4503 91.6508 28.5061 91.6663C39.4771 94.3414 52.103 92.6976 62.6184 89.3169C69.703 87.0373 75.9788 83.579 81.4364 79.1826C84.207 76.9495 86.5965 74.3287 87.9167 71.3124C90.2225 65.97 88.5303 60.5113 85.3134 55.6961Z" fill="url(#paint0_linear_65_642)"/>
<path id="Vector_2" opacity="0.2" d="M49.165 2.32616C49.7414 2.32616 50.4294 2.32616 50.8571 2.41921C50.6805 3.14032 50.9129 3.90795 51.5358 4.46623C52.0751 4.95473 52.8282 5.21836 53.5906 5.21836C53.9718 5.21836 54.353 5.15633 54.7156 5.01676C55.0596 4.8927 55.4222 4.7919 55.7848 4.71436C55.2176 5.10205 54.604 5.55178 54.074 6.11781C53.135 7.06378 52.6794 8.07954 52.2796 9.08754C51.5544 10.8244 50.8478 12.5768 50.1691 14.2749C49.4997 15.942 48.8024 17.6711 48.0958 19.3614C47.7704 20.0515 47.6123 20.5788 47.603 21.6101C47.5937 22.1916 47.8448 22.7576 48.3096 23.1841V23.4245C48.2074 23.5563 48.1144 23.6958 48.04 23.8509C47.6123 24.7271 47.8633 25.7274 48.6722 26.3942C49.9646 27.4487 51.6381 28.3172 53.386 28.8367C53.4883 28.8677 53.5999 28.8909 53.7021 28.9142C57.0678 29.5578 60.136 31.0233 62.5998 33.1788C64.5987 34.8769 66.0677 36.8774 67.6297 38.9865C68.3177 39.9247 69.0336 40.8862 69.8053 41.8477C71.5811 44.042 73.5522 46.1201 75.4581 48.1206C76.3042 49.0045 77.1689 49.9195 78.0056 50.8267C80.1254 53.1296 81.6781 55.037 82.8775 56.8282C86.2338 61.8604 87.0427 66.4662 85.2762 70.5215C84.2349 72.902 82.2917 75.2591 79.4839 77.5155C74.1472 81.8112 68.1318 85.0523 61.5957 87.1536C54.4273 89.4565 47.0638 90.6816 40.3045 90.6816C36.3624 90.6816 32.6528 90.2629 29.2778 89.441L29.129 89.4022C24.3873 88.2391 19.8409 86.2309 15.9918 83.5868C12.2821 81.0435 8.13543 77.9342 5.53215 74.2201C3.50531 71.3202 2.54767 67.7534 2.83589 64.1711C3.35655 57.6423 8.13543 51.2221 13.2118 45.2516C16.1498 41.8089 19.4504 38.5523 23.0299 35.5748L23.1043 35.5128C26.4607 32.7214 30.2633 29.5578 34.2519 27.7434C34.2984 27.7201 34.3728 27.6891 34.4658 27.6581C36.0742 26.999 38.0825 26.1771 38.0825 24.3859V22.7034C38.4358 22.1296 38.4915 21.455 38.2219 20.8424C38.1661 20.7029 38.1103 20.5865 38.0639 20.478C37.8035 19.8577 37.6083 19.439 37.0225 18.6403C36.9761 18.5783 36.9296 18.524 36.8831 18.4697C33.88 15.0735 31.2953 10.2119 29.7706 5.12531L29.7613 5.0943C29.7427 5.009 29.7241 4.93147 29.7148 4.86168C29.8449 4.84617 30.003 4.83067 30.1982 4.83067C30.4679 4.83067 30.7654 4.85393 31.0536 4.90045L31.2117 4.92371C32.1228 5.07104 33.1548 5.23387 34.2333 5.23387C36.0928 5.23387 37.5897 4.73762 38.6868 3.75288C39.1517 3.34967 39.4213 2.93872 39.5979 2.66733C39.6258 2.62856 39.6537 2.58204 39.6816 2.54327C39.8211 2.5045 40.1837 2.42696 41.0855 2.42696C42.4429 2.42696 43.8376 2.4037 45.1764 2.38044C46.5059 2.34942 47.8633 2.32616 49.165 2.32616ZM49.165 0C46.5059 0 43.7446 0.0930464 41.0948 0.0930464C39.8769 0.0930464 38.4358 0.186093 37.6641 0.930465C37.2178 1.30265 37.1155 1.76788 36.6692 2.14007C36.037 2.72161 35.1724 2.89995 34.2426 2.89995C33.3687 2.89995 32.4389 2.74487 31.5835 2.6053C31.1466 2.53552 30.6817 2.49675 30.2168 2.49675C28.785 2.49675 27.3625 2.87669 26.9441 4.001C26.8326 4.55928 26.9441 5.02451 27.0557 5.58279C28.4968 10.429 31.1187 15.8334 34.6517 19.8344C35.2188 20.6176 35.2653 20.8579 35.6093 21.6333H35.2932V24.3782C35.2932 24.7969 33.2943 25.5258 32.9224 25.6963C28.5433 27.6891 24.5733 31.0078 21.0682 33.9232C17.3585 37.0015 13.9742 40.3434 10.9433 43.9025C5.94124 49.7721 0.641701 56.6731 0.055963 64.0083C-0.26015 67.9085 0.762567 71.9948 3.13341 75.3832C5.85756 79.2756 10.0879 82.5323 14.2345 85.3779C18.3719 88.2159 23.2066 90.3637 28.348 91.6276C28.4038 91.6431 28.4503 91.6508 28.5061 91.6663C32.2995 92.5891 36.2881 93 40.3231 93C47.9563 93 55.7383 91.5345 62.6184 89.3169C69.703 87.0373 75.9788 83.579 81.4364 79.1826C84.207 76.9495 86.5965 74.3287 87.9167 71.3124C90.2503 65.9622 88.5489 60.5035 85.332 55.6883C83.863 53.4862 82.0872 51.4005 80.237 49.4C77.5222 46.4535 74.6214 43.6233 72.1389 40.545C69.6565 37.4745 67.7785 34.2411 64.608 31.5505C61.7537 29.0538 58.1463 27.3712 54.3437 26.6423C52.9119 26.2159 51.5916 25.4947 50.6433 24.7271H51.0989V21.6333H50.3923C50.4016 20.8579 50.5038 20.6098 50.7177 20.1678C52.1588 16.7174 53.479 13.2979 54.9201 9.84742C55.2548 9.01 55.5802 8.22686 56.2496 7.57554C57.0213 6.73812 58.2393 6.15658 59.1225 5.31916C60.0058 4.48174 60.3405 3.07054 59.2341 2.32616C58.667 2.24087 58.0905 2.2021 57.5048 2.2021C56.166 2.2021 54.8271 2.42696 53.5906 2.88444C54.1391 2.04702 53.479 0.922711 52.4842 0.457479C51.4893 1.3865e-07 50.2714 0 49.165 0Z" fill="#424242"/>
<path id="Vector_3" opacity="0.2" d="M45.6785 24.1303C42.8521 21.2148 44.8882 20.8659 43.8748 18.2761C42.9822 15.9887 41.225 13.7479 38.5753 11.6078C38.5102 11.8482 38.91 12.8639 38.9472 13.1043C39.6166 15.4537 38.4265 17.7489 39.6352 20.1293C40.6114 22.0445 42.8242 22.9982 45.3345 24.8281C45.4647 24.5955 45.9388 24.4017 45.6785 24.1303Z" fill="#212121"/>
<path id="Vector_4" d="M51.3405 25.3398H34.8933C33.5173 25.3398 32.3923 24.4016 32.3923 23.254C32.3923 22.1064 33.5173 21.1682 34.8933 21.1682H51.3405C52.7165 21.1682 53.8415 22.1064 53.8415 23.254C53.8415 24.4016 52.7165 25.3398 51.3405 25.3398Z" fill="#6D4C41"/>
<path id="Vector_5" opacity="0.2" d="M51.3405 21.9436C52.2052 21.9436 52.9118 22.5329 52.9118 23.254C52.9118 23.9751 52.2052 24.5644 51.3405 24.5644H34.8933C34.0287 24.5644 33.3221 23.9751 33.3221 23.254C33.3221 22.5329 34.0287 21.9436 34.8933 21.9436H51.3405ZM51.3405 21.1682H34.8933C33.5173 21.1682 32.3923 22.1064 32.3923 23.254C32.3923 24.4016 33.5173 25.3398 34.8933 25.3398H51.3405C52.7165 25.3398 53.8415 24.4016 53.8415 23.254C53.8415 22.1064 52.7165 21.1682 51.3405 21.1682Z" fill="#424242"/>
<path id="Vector_6" d="M57.0399 68.8155C57.0399 67.0477 56.6308 65.5124 55.8313 64.1942C55.0224 62.8761 53.7672 61.7285 52.0565 60.736C50.5131 59.8443 48.4212 59.0146 45.79 58.2548L45.9667 45.6315C47.2218 45.9494 48.2724 46.5542 49.1371 47.4459C50.2807 48.6322 50.9408 50.0046 51.0989 51.9043C51.1453 52.4471 51.6567 52.7107 52.3168 52.7107H55.4036C56.0916 52.7107 56.6587 52.4083 56.6215 51.8423C56.4449 48.9191 55.7383 46.6627 54.0647 44.9026C52.196 42.9409 49.2394 41.8553 46.4501 41.4754V37.141C46.4501 36.4974 45.3995 35.66 44.6279 35.66H42.945C42.1826 35.6522 41.8014 36.4974 41.8014 37.1332V40.3123L41.662 41.4444C38.3335 41.7778 35.6558 42.8168 33.7592 44.5614C31.8532 46.306 30.8677 48.5469 30.8677 51.2763C30.8677 53.9591 31.8253 56.169 33.7685 57.9058C35.4327 59.3946 37.9337 60.6352 41.2808 61.6432L41.1041 74.5922C39.3655 74.3518 37.9616 73.7703 36.8831 72.8553C35.6186 71.7775 34.9027 70.2578 34.7354 68.3813C34.6889 67.8618 34.1496 67.4354 33.5267 67.4354H30.4121C29.7241 67.4354 29.1569 67.9471 29.1941 68.5209C29.3987 71.3278 30.347 73.6074 32.2251 75.321C34.3356 77.244 37.1434 78.3606 40.8624 78.6475V82.2608C40.8624 82.9043 41.662 83.7262 42.4337 83.7262H44.0886C44.8603 83.7262 45.5204 82.9043 45.5204 82.2608V79.7097V78.6552C49.165 78.3373 51.9914 77.3215 54.0183 75.6079C56.0358 73.8943 57.0399 71.6302 57.0399 68.8155ZM38.3707 55.2618C37.0411 54.2538 36.381 52.8968 36.381 51.1987C36.381 49.3611 37.0133 47.9344 38.2684 46.9108C39.0959 46.2363 40.1744 45.7865 41.4946 45.5539L41.3366 56.8358C40.0907 56.3396 39.0959 55.8123 38.3707 55.2618ZM49.258 73.1577C48.2724 73.8478 47.0359 74.313 45.5576 74.5457L45.7249 63.0001C47.4078 63.6204 48.7001 64.2873 49.5741 64.9929C50.8571 66.0397 51.508 67.3346 51.508 68.8621C51.4987 70.6765 50.7549 72.1109 49.258 73.1577Z" fill="url(#paint1_linear_65_642)"/>
</g>
<defs>
<linearGradient id="paint0_linear_65_642" x1="44.4865" y1="93.0077" x2="44.4865" y2="-0.0012418" gradientUnits="userSpaceOnUse">
<stop stop-color="#FFB74D"/>
<stop offset="1" stop-color="#FFE0B2"/>
</linearGradient>
<linearGradient id="paint1_linear_65_642" x1="43.1189" y1="83.7262" x2="43.1189" y2="35.6522" gradientUnits="userSpaceOnUse">
<stop offset="0.0023318" stop-color="#5D4037"/>
<stop offset="1" stop-color="#795548"/>
</linearGradient>
</defs>
</svg>
