<svg width="81" height="95" viewBox="0 0 81 95" fill="none" xmlns="http://www.w3.org/2000/svg">
<g id="&#240;&#159;&#166;&#134; illustration &#34;Chef&#34;">
<path id="Vector" d="M0.187988 52.2444H80.8159V56.7346H0.187988V52.2444Z" fill="white"/>
<path id="Vector_2" d="M80.8121 56.9242H0.1879C0.138066 56.9242 0.0902727 56.9042 0.0550345 56.8686C0.0197964 56.833 0 56.7848 0 56.7345V52.2443C0 52.194 0.0197964 52.1458 0.0550345 52.1102C0.0902727 52.0747 0.138066 52.0547 0.1879 52.0547H80.8121C80.8619 52.0547 80.9097 52.0747 80.945 52.1102C80.9802 52.1458 81 52.194 81 52.2443V56.7345C81 56.7848 80.9802 56.833 80.945 56.8686C80.9097 56.9042 80.8619 56.9242 80.8121 56.9242ZM0.39083 56.5449H80.6242V52.4301H0.3758L0.39083 56.5449Z" fill="#D1D3D4"/>
<path id="Vector_3" d="M2.49146 56.7346H78.5121V84.7909H2.49146V56.7346Z" fill="white"/>
<path id="Vector_4" d="M78.5085 84.9805H2.49161C2.44178 84.9805 2.39398 84.9605 2.35875 84.9249C2.32351 84.8894 2.30371 84.8411 2.30371 84.7908V56.727C2.30371 56.6767 2.32351 56.6284 2.35875 56.5929C2.39398 56.5573 2.44178 56.5374 2.49161 56.5374H78.5085C78.5583 56.5374 78.6061 56.5573 78.6414 56.5929C78.6766 56.6284 78.6964 56.6767 78.6964 56.727V84.7908C78.6964 84.8411 78.6766 84.8894 78.6414 84.9249C78.6061 84.9605 78.5583 84.9805 78.5085 84.9805ZM2.67951 84.6012H78.3206V56.9166H2.67951V84.6012Z" fill="#D1D3D4"/>
<path id="Vector_5" d="M29.2259 82.0109H6.67789C6.62836 82.0099 6.58112 81.9896 6.54609 81.9543C6.51106 81.9189 6.49095 81.8712 6.48999 81.8213V59.7077C6.48999 59.6574 6.50979 59.6092 6.54502 59.5736C6.58026 59.538 6.62806 59.5181 6.67789 59.5181H29.2259C29.2757 59.5181 29.3235 59.538 29.3588 59.5736C29.394 59.6092 29.4138 59.6574 29.4138 59.7077V81.8213C29.4138 81.8715 29.394 81.9198 29.3588 81.9553C29.3235 81.9909 29.2757 82.0109 29.2259 82.0109ZM6.87706 81.6316H29.0493V59.8973H6.87706V81.6316Z" fill="#D1D3D4"/>
<path id="Vector_6" d="M51.774 82.0109H29.226C29.1765 82.0099 29.1292 81.9896 29.0942 81.9543C29.0592 81.9189 29.039 81.8712 29.0381 81.8213V59.7077C29.0381 59.6574 29.0579 59.6092 29.0931 59.5736C29.1284 59.538 29.1762 59.5181 29.226 59.5181H51.774C51.8238 59.5181 51.8716 59.538 51.9069 59.5736C51.9421 59.6092 51.9619 59.6574 51.9619 59.7077V81.8213C51.9609 81.8712 51.9408 81.9189 51.9058 81.9543C51.8708 81.9896 51.8235 82.0099 51.774 82.0109ZM29.4214 81.6316H51.5936V59.8973H29.4214V81.6316Z" fill="#D1D3D4"/>
<path id="Vector_7" d="M74.3221 82.0109H51.7741C51.7242 82.0109 51.6765 81.9909 51.6412 81.9553C51.606 81.9198 51.5862 81.8715 51.5862 81.8213V59.7077C51.5862 59.6574 51.606 59.6092 51.6412 59.5736C51.6765 59.538 51.7242 59.5181 51.7741 59.5181H74.3221C74.3719 59.5181 74.4197 59.538 74.455 59.5736C74.4902 59.6092 74.51 59.6574 74.51 59.7077V81.8213C74.509 81.8712 74.4889 81.9189 74.4539 81.9543C74.4189 81.9896 74.3716 82.0099 74.3221 82.0109ZM51.9733 81.6316H74.1455V59.8973H51.9733V81.6316Z" fill="#D1D3D4"/>
<path id="Vector_8" d="M31.9203 10.4633C31.8233 10.3382 31.7004 10.2361 31.5602 10.164C31.4199 10.0919 31.2658 10.0517 31.1085 10.0461C30.9701 10.0466 30.8365 10.0978 30.7327 10.1903C30.6193 10.3237 30.5497 10.4893 30.5335 10.6643C30.4482 11.1346 30.461 11.6177 30.5711 12.0827C30.6875 12.5491 30.9513 12.9645 31.3227 13.2659C31.7324 13.5845 32.2923 13.6451 32.5027 13.0801C32.655 12.6322 32.6811 12.1505 32.5783 11.6885C32.4754 11.2266 32.2477 10.8025 31.9203 10.4633Z" fill="white"/>
<path id="Vector_9" d="M31.9279 13.6982C31.6598 13.6881 31.4024 13.5895 31.1951 13.4175C30.7922 13.0888 30.5071 12.6359 30.3834 12.1281C30.2649 11.6386 30.2508 11.1293 30.3421 10.6339C30.3634 10.4186 30.4515 10.2155 30.5939 10.0537C30.7336 9.92547 30.9161 9.85506 31.1049 9.85647C31.2891 9.86328 31.4697 9.90938 31.6348 9.99175C31.8 10.0741 31.946 10.1909 32.0632 10.3343C32.4095 10.7018 32.6489 11.1585 32.7549 11.6542C32.861 12.1499 32.8297 12.6655 32.6645 13.1445C32.6259 13.2674 32.5582 13.379 32.4671 13.4696C32.3761 13.5601 32.2645 13.6269 32.1422 13.664C32.0726 13.6852 32.0006 13.6967 31.9279 13.6982ZM31.1237 10.2357C31.0296 10.2359 30.9384 10.268 30.8644 10.3267C30.7812 10.4361 30.7327 10.5683 30.7254 10.706C30.6411 11.1495 30.6527 11.6061 30.7592 12.0447C30.8619 12.4708 31.0994 12.8516 31.4356 13.1293C31.5184 13.2044 31.6165 13.26 31.7231 13.2921C31.8297 13.3243 31.942 13.3321 32.052 13.3151C32.1173 13.2917 32.1761 13.2531 32.2238 13.2023C32.2715 13.1516 32.3066 13.0902 32.3263 13.0231C32.4649 12.6076 32.4881 12.1617 32.3933 11.7339C32.2986 11.306 32.0896 10.9125 31.7889 10.596C31.7104 10.491 31.6103 10.4044 31.4955 10.3422C31.3806 10.28 31.2538 10.2437 31.1237 10.2357Z" fill="#231F20"/>
<path id="Vector_10" d="M54.0664 85.3026C54.1416 85.5302 56.464 89.2695 56.464 89.2695C56.464 89.2695 58.9443 89.9673 60.7594 88.3024L58.7489 83.5012L54.0664 85.3026Z" fill="white"/>
<path id="Vector_11" d="M57.7193 89.5957C57.2796 89.6003 56.8411 89.5468 56.4152 89.4364C56.3701 89.425 56.331 89.3965 56.3063 89.3567C55.7576 88.4731 53.965 85.5643 53.8861 85.3444C53.8714 85.2981 53.875 85.2478 53.896 85.2041C53.9169 85.1603 53.9538 85.1264 53.9988 85.1092L58.6813 83.3078C58.7273 83.2913 58.7777 83.2931 58.8224 83.3128C58.8671 83.3326 58.9027 83.3688 58.9218 83.414L60.9324 88.2152C60.9485 88.2508 60.9528 88.2907 60.9446 88.3289C60.9365 88.3672 60.9164 88.4018 60.8873 88.4276C60.0142 89.2047 58.8832 89.6217 57.7193 89.5957ZM56.5919 89.0913C56.9677 89.1785 59.0007 89.5539 60.5415 88.238L58.6625 83.7288L54.3295 85.424C54.6603 85.9853 55.814 87.8625 56.5844 89.1064L56.5919 89.0913Z" fill="#231F20"/>
<path id="Vector_12" d="M33.7356 89.1597L27.8018 93.6651C27.8694 95.4096 31.5598 94.8672 34.9683 93.9684C38.3768 93.0696 39.0344 92.3377 39.0344 92.3377L38.8954 89.3455L33.7356 89.1597Z" fill="#231F20"/>
<path id="Vector_13" d="M29.9778 95.0001C29.1059 95.0001 28.4796 94.856 28.0988 94.5678C27.9574 94.4658 27.8419 94.3316 27.7616 94.1761C27.6812 94.0205 27.6384 93.8481 27.6365 93.6728C27.6342 93.6428 27.6395 93.6128 27.652 93.5855C27.6645 93.5583 27.6838 93.5348 27.7079 93.5173L33.6418 89.0081C33.6582 88.9938 33.6773 88.983 33.698 88.9765C33.7187 88.97 33.7405 88.9678 33.7621 88.9702L38.9218 89.156C38.9691 89.1579 39.0139 89.1776 39.0473 89.2114C39.0807 89.2451 39.1003 89.2903 39.1022 89.338L39.2412 92.3264C39.2424 92.3765 39.225 92.4252 39.1924 92.463C39.1623 92.4971 38.4408 93.2556 35.036 94.1544C33.3893 94.6383 31.6912 94.9222 29.9778 95.0001ZM27.9898 93.7676C28.004 93.8686 28.0383 93.9656 28.0907 94.053C28.143 94.1403 28.2122 94.2161 28.2942 94.2757C29.1059 94.8787 31.4547 94.7119 34.9158 93.7979C37.6929 93.066 38.6174 92.4402 38.8354 92.2809L38.7114 89.5542L33.7884 89.376L27.9898 93.7676Z" fill="#231F20"/>
<path id="Vector_14" d="M38.621 84.2181L38.9066 89.3455C38.9066 89.3455 35.9266 90.7676 33.7469 89.1597L32.6721 83.1487L38.621 84.2181Z" fill="white"/>
<path id="Vector_15" d="M36.2308 90.1192C35.2967 90.1409 34.3806 89.8576 33.6189 89.3114C33.5989 89.2974 33.582 89.2794 33.569 89.2585C33.5561 89.2376 33.5475 89.2144 33.5438 89.1901L32.4878 83.1753C32.4825 83.1452 32.4844 83.1143 32.4935 83.0852C32.5026 83.056 32.5185 83.0295 32.5399 83.0079C32.5613 82.9863 32.5876 82.9703 32.6164 82.9611C32.6453 82.952 32.6759 82.95 32.7057 82.9553L38.6208 84.0324C38.6624 84.0393 38.7004 84.0604 38.7285 84.0921C38.7565 84.1239 38.7729 84.1643 38.7749 84.2068L39.0605 89.3342C39.0628 89.3716 39.054 89.4089 39.0353 89.4413C39.0166 89.4737 38.9887 89.4998 38.9553 89.5162C38.0957 89.8975 37.1696 90.1025 36.2308 90.1192ZM33.9008 89.0497C35.7197 90.3354 38.1436 89.4517 38.6922 89.2242L38.4217 84.3775L32.9049 83.3763L33.9008 89.0497Z" fill="#231F20"/>
<path id="Vector_16" d="M29.1585 47.4695L45.8365 43.7947L60.0417 85.1813C59.1686 85.9181 58.1213 86.4142 57.0018 86.6216C55.8823 86.8289 54.7287 86.7404 53.6531 86.3645L38.8917 58.3879L39.5944 86.6907C36.588 88.2076 32.676 86.6262 32.676 86.6262C29.8537 78.245 27.4448 47.4619 27.4448 47.4619" fill="#231F20"/>
<path id="Vector_17" d="M36.5091 87.5364C35.1691 87.5214 33.8417 87.2725 32.5858 86.8006C32.5607 86.7905 32.538 86.7751 32.5192 86.7555C32.5005 86.7359 32.486 86.7125 32.4768 86.6869C29.6808 78.3777 27.2645 47.7843 27.2381 47.4771C27.2342 47.4268 27.2501 47.377 27.2826 47.3386C27.315 47.3002 27.3612 47.2763 27.411 47.2723C27.4608 47.2683 27.5102 47.2844 27.5483 47.3171C27.5863 47.3498 27.61 47.3965 27.614 47.4468C27.6403 47.7539 30.0379 78.097 32.8075 86.4821C33.3637 86.6869 36.7233 87.8246 39.3878 86.5731L38.6888 58.3917C38.6882 58.3495 38.7015 58.3083 38.7267 58.2747C38.7519 58.241 38.7875 58.2168 38.8278 58.2058C38.8689 58.1949 38.9124 58.1983 38.9513 58.2155C38.9902 58.2327 39.0222 58.2627 39.042 58.3006L53.7697 86.2128C54.7918 86.5537 55.8821 86.632 56.9418 86.4406C58.0015 86.2492 58.9972 85.7943 59.8388 85.1168L45.7125 44.0146L29.1998 47.6553C29.1751 47.6608 29.1496 47.6613 29.1248 47.6569C29.0999 47.6524 29.0761 47.643 29.0549 47.6293C29.0336 47.6156 29.0152 47.5977 29.0007 47.5768C28.9863 47.5559 28.976 47.5323 28.9706 47.5074C28.9652 47.4825 28.9646 47.4568 28.9691 47.4317C28.9735 47.4066 28.9828 47.3826 28.9964 47.3611C29.01 47.3397 29.0277 47.3211 29.0484 47.3065C29.0691 47.2919 29.0925 47.2816 29.1172 47.2761L45.7952 43.5975C45.8399 43.5882 45.8864 43.5953 45.9263 43.6176C45.9663 43.6398 45.9971 43.6757 46.0131 43.7188L60.2297 85.1206C60.2421 85.1565 60.2434 85.1953 60.2334 85.2319C60.2233 85.2686 60.2023 85.3012 60.1733 85.3254C59.2677 86.0839 58.1837 86.5941 57.0258 86.8067C55.8679 87.0192 54.6753 86.927 53.563 86.539C53.5236 86.5221 53.4906 86.4928 53.469 86.4555L39.0796 59.1805L39.7485 86.6869C39.7497 86.7226 39.7407 86.758 39.7228 86.7889C39.7048 86.8198 39.6786 86.8449 39.6471 86.8613C38.6654 87.3236 37.5923 87.5545 36.5091 87.5364Z" fill="#231F20"/>
<path id="Vector_18" d="M56.4641 89.2696C56.4641 89.2696 57.1218 92.0115 57.3848 92.3035C57.6479 92.5955 66.6107 94.4045 67.0654 93.3426C67.5202 92.2808 60.7595 88.2874 60.7595 88.2874C60.7595 88.2874 58.3544 89.5957 56.4641 89.2696Z" fill="#231F20"/>
<path id="Vector_19" d="M65.7312 93.8735C63.1608 93.8735 57.5651 92.8154 57.2457 92.4399C56.9262 92.0645 56.3926 89.7853 56.2836 89.315C56.2758 89.2844 56.2759 89.2524 56.2838 89.2219C56.2917 89.1914 56.3071 89.1634 56.3287 89.1405C56.3492 89.1177 56.3752 89.1005 56.4041 89.0905C56.433 89.0806 56.464 89.0782 56.4941 89.0836C58.2979 89.3833 60.6504 88.1507 60.673 88.1355C60.7007 88.1206 60.7317 88.1128 60.7632 88.1128C60.7946 88.1128 60.8256 88.1206 60.8534 88.1355C62.473 89.0912 67.723 92.3072 67.242 93.426C67.1555 93.6308 66.9188 93.7559 66.4904 93.8242C66.2388 93.8586 65.9851 93.8751 65.7312 93.8735ZM56.712 89.4932C57.0202 90.7409 57.3922 92.0342 57.5275 92.1934C57.9409 92.4551 65.0999 93.8886 66.6858 93.3994C66.7668 93.3846 66.8407 93.3433 66.8962 93.2819C67.0804 92.8457 64.788 90.9078 60.7556 88.5186C60.3084 88.7423 58.3919 89.6449 56.712 89.4932Z" fill="#231F20"/>
<path id="Vector_20" d="M41.2028 12.2042C41.5497 11.1977 41.6198 10.1151 41.4058 9.07163C41.03 7.50536 38.918 5.83291 37.4185 5.94289C35.9191 6.05287 31.9656 7.89978 31.7815 8.46485C31.5974 9.02992 31.2629 13.4291 32.1085 13.9866C32.954 14.5441 40.6466 14.0435 41.2028 12.2042Z" fill="white"/>
<path id="Vector_21" d="M33.8822 14.3846C32.9539 14.3846 32.2474 14.3049 32.0032 14.1456C30.9923 13.4782 31.4395 8.89695 31.5973 8.40773C31.819 7.7213 35.8852 5.86302 37.3997 5.75304C38.9968 5.63547 41.1577 7.34964 41.5823 9.02589C41.8086 10.1042 41.7371 11.2245 41.3756 12.2646C41.2253 12.75 40.6729 13.1672 39.7259 13.5161C38.1287 14.1001 35.6146 14.3846 33.8822 14.3846ZM37.5612 6.12469H37.4297C35.9265 6.23088 32.1309 8.07399 31.9581 8.51771C31.8031 9.41026 31.7326 10.3157 31.7476 11.2217C31.7476 13.3492 32.1046 13.7512 32.2136 13.8233C32.7585 14.1798 37.2005 14.0281 39.6018 13.152C40.4211 12.8524 40.9134 12.4997 41.0224 12.1395C41.3554 11.164 41.4229 10.1163 41.2178 9.10553C40.8758 7.67958 38.9555 6.12469 37.5612 6.12469Z" fill="#231F20"/>
<path id="Vector_22" d="M32.7433 5.52164C32.7433 5.52164 31.8564 6.40148 30.3644 5.52164C28.8725 4.6418 29.1769 2.89729 29.6128 2.27533C30.0488 1.65337 31.3453 0.447387 32.5441 0.758365C33.1158 0.864472 33.6627 1.07802 34.1563 1.38791C34.1563 1.38791 35.1409 0.777328 37.3506 0.735611C39.5603 0.693894 40.2668 1.84679 40.2668 1.84679C40.2668 1.84679 42.0255 1.13381 43.1229 2.15397C43.592 2.56223 43.8887 3.13603 43.9523 3.75787C44.0159 4.37972 43.8415 5.00256 43.4648 5.49888C42.7771 6.31425 39.9849 6.10567 39.9849 6.10567L32.7433 5.52164Z" fill="white"/>
<path id="Vector_23" d="M40.7856 6.29899C40.3722 6.29899 40.0528 6.27624 39.9626 6.27244L32.8224 5.71496C32.5706 5.91596 31.6612 6.4962 30.2857 5.66945C30.0003 5.50359 29.7525 5.27918 29.5583 5.01071C29.3641 4.74224 29.2279 4.43566 29.1583 4.11077C29.0136 3.44 29.1279 2.73879 29.4778 2.15009C29.9363 1.48642 31.3004 0.223543 32.6082 0.549691C33.1605 0.668489 33.6924 0.869133 34.1866 1.1451C34.5022 0.985819 35.5169 0.557275 37.3658 0.523144C39.2148 0.489012 40.0904 1.28163 40.3534 1.5964C40.8044 1.4447 42.27 1.06167 43.2696 1.97564C43.7738 2.41662 44.0931 3.03447 44.1629 3.70408C44.2327 4.3737 44.0477 5.04505 43.6454 5.58222C43.0968 6.1928 41.7026 6.29899 40.7856 6.29899ZM32.7435 5.33192L39.9739 5.8932C40.7255 5.95009 42.7849 5.96146 43.296 5.35468C43.6378 4.89425 43.7941 4.32023 43.7335 3.74816C43.6728 3.17609 43.3997 2.64845 42.969 2.27145C41.9694 1.34231 40.3384 1.99081 40.3121 1.99839C40.2712 2.0157 40.2256 2.01756 40.1835 2.00363C40.1413 1.98969 40.1056 1.96091 40.0829 1.92254C40.0566 1.88083 39.3876 0.860668 37.3282 0.902385C35.1937 0.944101 34.2392 1.52055 34.2279 1.52813C34.1964 1.55015 34.1591 1.56195 34.1208 1.56195C34.0825 1.56195 34.0451 1.55015 34.0137 1.52813C33.5385 1.24041 33.017 1.0389 32.4729 0.932724C31.3455 0.652086 30.1354 1.81256 29.7446 2.38143C29.4525 2.88181 29.3573 3.47463 29.4778 4.0425C29.5373 4.31884 29.6546 4.57918 29.8218 4.80612C29.989 5.03306 30.2022 5.22137 30.4473 5.35847C31.8115 6.16246 32.6082 5.40398 32.6082 5.40398C32.6245 5.38307 32.6449 5.36584 32.6682 5.35343C32.6915 5.34102 32.7172 5.33369 32.7435 5.33192Z" fill="#231F20"/>
<path id="Vector_24" d="M34.2243 16.5425L33.5404 20.2135C33.5404 20.2135 34.7129 22.5193 37.1105 21.886C39.5081 21.2527 39.8801 19.3868 39.8801 19.383L40.0417 15.4503L40.1394 13.0307C40.1863 12.7807 40.1964 12.5252 40.1695 12.2722C40.0868 12.0219 39.7937 11.8437 39.6434 11.6389C39.4182 11.3359 39.2219 11.0121 39.0571 10.6718C38.708 9.99813 38.455 9.27804 38.3055 8.5329C37.393 8.60153 36.4871 8.33184 35.7576 7.77441C35.4946 8.23709 36.3063 8.6808 36.2537 9.20795C35.378 9.06763 34.2506 8.7794 33.6231 8.13469C33.3149 8.10056 32.1199 10.2622 31.9583 11.1193C31.7218 12.2342 31.6912 13.3836 31.8681 14.5097C32.2326 16.4022 34.2243 16.5425 34.2243 16.5425Z" fill="white"/>
<path id="Vector_25" d="M36.2984 22.1857C34.3555 22.1857 33.3822 20.3236 33.3747 20.2895C33.3618 20.2501 33.3618 20.2076 33.3747 20.1681L34.021 16.6905C33.4724 16.5957 32.003 16.1823 31.7211 14.5554C31.5403 13.4054 31.5708 12.2317 31.8113 11.0929C31.9997 10.4299 32.2685 9.79305 32.6118 9.19669C33.3296 7.90348 33.5776 7.93382 33.6791 7.9414C33.7237 7.94749 33.7648 7.96892 33.7956 8.00208C34.2165 8.44579 34.9756 8.76056 36.0504 8.97294C35.9903 8.85312 35.9199 8.7389 35.8399 8.63162C35.652 8.36236 35.419 8.03242 35.6182 7.67972C35.6315 7.65564 35.6499 7.63471 35.6719 7.61836C35.6939 7.602 35.7192 7.5906 35.746 7.58491C35.7723 7.58078 35.7991 7.58201 35.8249 7.58852C35.8507 7.59503 35.875 7.6067 35.8963 7.62284C36.5921 8.14544 37.4514 8.39724 38.3164 8.33202C38.3629 8.32735 38.4094 8.34029 38.4469 8.36833C38.4844 8.39638 38.5103 8.43751 38.5194 8.48372C38.6612 9.21158 38.9054 9.91524 39.2447 10.5733C39.4059 10.9019 39.5958 11.2154 39.8121 11.5101C39.8699 11.5792 39.9327 11.6438 40 11.7035C40.1606 11.837 40.2891 12.0056 40.3758 12.1965C40.419 12.399 40.419 12.6084 40.3758 12.8109C40.3758 12.8867 40.357 12.9588 40.357 13.0119L40.0977 19.3642C40.0977 19.3907 39.7219 21.3741 37.189 22.0416C36.8998 22.1291 36.6003 22.1776 36.2984 22.1857ZM33.7354 20.1947C33.9308 20.536 35.0207 22.254 37.065 21.7117C39.3198 21.1162 39.6956 19.3755 39.6956 19.3604L39.9512 13.0346C39.9543 12.9559 39.9619 12.8774 39.9737 12.7995C40.0033 12.6548 40.0096 12.5063 39.9925 12.3596C39.927 12.2268 39.8334 12.1103 39.7182 12.0182C39.6384 11.9457 39.5643 11.8671 39.4964 11.7831C39.2641 11.4699 39.0603 11.1361 38.8877 10.7857C38.558 10.1444 38.3129 9.46228 38.1586 8.75677C37.3779 8.78408 36.6066 8.57827 35.9414 8.16515C35.9943 8.2644 36.0546 8.35948 36.1218 8.44958C36.3243 8.67229 36.438 8.9627 36.4412 9.26495C36.4391 9.29035 36.4317 9.315 36.4193 9.33724C36.407 9.35948 36.3901 9.3788 36.3698 9.3939C36.35 9.41003 36.327 9.42174 36.3024 9.42828C36.2778 9.43482 36.2521 9.43602 36.227 9.43182C35.0132 9.23461 34.1338 8.88951 33.5964 8.40028C32.9525 9.23525 32.4636 10.1809 32.1533 11.1915C31.9218 12.284 31.8925 13.4104 32.0669 14.5137C32.3638 16.224 34.2127 16.3644 34.2315 16.3644C34.2577 16.3666 34.2832 16.3741 34.3064 16.3865C34.3297 16.3988 34.3502 16.4158 34.3668 16.4364C34.3832 16.4576 34.3947 16.4822 34.4005 16.5084C34.4064 16.5347 34.4064 16.5619 34.4006 16.5881L33.7354 20.1947Z" fill="#231F20"/>
<path id="Vector_26" d="M33.8672 18.4728C34.2839 18.5452 34.7119 18.514 35.1139 18.3818C35.516 18.2497 35.8801 18.0205 36.1746 17.7143C37.2156 16.6638 37.1141 15.8181 37.1141 15.8181C36.2803 16.429 35.2454 16.6924 34.2242 16.5538L33.8672 18.4728Z" fill="#231F20"/>
<path id="Vector_27" d="M34.3068 18.7042C34.1439 18.708 33.981 18.6915 33.8221 18.6549C33.7757 18.644 33.7353 18.6154 33.7094 18.575C33.6834 18.5347 33.674 18.4859 33.683 18.4387L34.04 16.5083C34.0509 16.4601 34.0793 16.4177 34.1197 16.3896C34.16 16.3615 34.2094 16.3497 34.258 16.3567C35.2271 16.4844 36.208 16.2349 37.0013 15.6588C37.0271 15.6374 37.0582 15.6233 37.0912 15.6183C37.1242 15.6133 37.158 15.6174 37.1889 15.6303C37.2198 15.6431 37.2467 15.6642 37.2666 15.6913C37.2865 15.7184 37.2987 15.7504 37.302 15.784C37.302 15.8219 37.3997 16.7511 36.3061 17.8584C36.0457 18.127 35.7346 18.3401 35.3912 18.4854C35.0479 18.6306 34.6792 18.705 34.3068 18.7042ZM34.0851 18.3249C34.444 18.358 34.8057 18.3099 35.1438 18.1839C35.4819 18.0579 35.7878 17.8573 36.0393 17.5968C36.4471 17.2171 36.7413 16.7297 36.8886 16.1898C36.1345 16.6513 35.2519 16.8523 34.3745 16.7624L34.0851 18.3249Z" fill="#231F20"/>
<path id="Vector_28" d="M36.0617 10.5127C36.0617 10.5127 34.7689 12.4089 35.0621 12.7275C35.3552 13.046 36.1895 12.8602 36.1895 12.8602" fill="white"/>
<path id="Vector_29" d="M35.6748 13.1103C35.5386 13.1223 35.4015 13.1056 35.2721 13.0612C35.1427 13.0168 35.0238 12.9457 34.9232 12.8524C34.5962 12.4732 35.299 11.3354 35.9077 10.4025C35.9365 10.3622 35.9797 10.3348 36.0282 10.3263C36.0767 10.3178 36.1265 10.3288 36.1671 10.357C36.1875 10.3707 36.2051 10.3885 36.2187 10.4091C36.2323 10.4298 36.2416 10.453 36.2462 10.4774C36.2508 10.5018 36.2504 10.5269 36.2452 10.5512C36.24 10.5754 36.23 10.5984 36.2159 10.6187C35.6109 11.4985 35.1411 12.4277 35.2088 12.6135C35.3704 12.7917 35.9153 12.7311 36.1558 12.6742C36.2041 12.6628 36.2549 12.6711 36.2972 12.6974C36.3394 12.7237 36.3697 12.7658 36.3813 12.8145C36.3874 12.8384 36.3888 12.8633 36.3853 12.8878C36.3818 12.9122 36.3736 12.9357 36.361 12.9569C36.3484 12.9781 36.3317 12.9966 36.312 13.0112C36.2922 13.0258 36.2698 13.0363 36.246 13.042C36.0585 13.0851 35.867 13.1079 35.6748 13.1103Z" fill="#231F20"/>
<path id="Vector_30" d="M37.6128 10.8471C37.7847 10.8352 37.9105 10.6273 37.8938 10.3828C37.8771 10.1383 37.7242 9.94982 37.5524 9.96177C37.3805 9.97372 37.2547 10.1816 37.2714 10.4261C37.2881 10.6705 37.441 10.859 37.6128 10.8471Z" fill="#231F20"/>
<path id="Vector_31" d="M34.9326 10.4436C34.988 10.205 34.8969 9.97941 34.7292 9.93975C34.5615 9.90008 34.3806 10.0613 34.3252 10.2999C34.2698 10.5385 34.3608 10.7641 34.5285 10.8038C34.6963 10.8434 34.8771 10.6822 34.9326 10.4436Z" fill="#231F20"/>
<path id="Vector_32" d="M35.4155 15.6855C35.2446 15.6924 35.0743 15.6621 34.916 15.5967C34.7578 15.5312 34.6154 15.4322 34.4985 15.3062C33.9386 14.6312 34.1603 13.5124 34.1716 13.4631C34.1803 13.4207 34.2035 13.3826 34.2372 13.3556C34.2708 13.3286 34.3127 13.3143 34.3557 13.3152C37.2343 13.3949 37.2494 13.4138 37.3208 13.5011C37.3375 13.5214 37.3498 13.5451 37.3569 13.5706C37.3641 13.5961 37.3658 13.6228 37.3621 13.649C37.2972 14.0939 37.1299 14.5174 36.8736 14.8853C36.7139 15.1157 36.5044 15.3064 36.2609 15.4431C36.0174 15.5798 35.7463 15.6588 35.4681 15.6741L35.4155 15.6855ZM34.5135 13.7021C34.4309 14.1729 34.5275 14.6578 34.7841 15.0597C34.8713 15.1472 34.9762 15.2146 35.0917 15.2572C35.2072 15.2997 35.3305 15.3165 35.453 15.3062C35.6762 15.2936 35.8936 15.2301 36.0889 15.1204C36.2842 15.0107 36.4523 14.8577 36.5804 14.6729C36.7639 14.4086 36.8918 14.1092 36.9562 13.7931C36.509 13.7665 35.3478 13.7248 34.5135 13.7021Z" fill="#231F20"/>
<path id="Vector_33" d="M36.7418 14.7865C36.103 15.6626 35.0432 15.6436 34.6599 15.1885C34.7419 15.0062 34.8641 14.8451 35.0172 14.7176C35.1702 14.5901 35.3501 14.4995 35.543 14.4528C35.969 14.4194 36.3931 14.5375 36.7418 14.7865Z" fill="#231F20"/>
<path id="Vector_34" d="M35.4153 15.6854C35.2445 15.6913 35.0745 15.6606 34.9164 15.5952C34.7583 15.5298 34.6158 15.4313 34.4983 15.3062C34.4746 15.2759 34.4601 15.2393 34.4568 15.2009C34.4535 15.1625 34.4614 15.1239 34.4795 15.09C34.5718 14.8803 34.7124 14.6959 34.8895 14.5521C35.0666 14.4083 35.2752 14.3093 35.4979 14.2632C35.9717 14.2283 36.4426 14.3626 36.8283 14.6425C36.8697 14.6723 36.898 14.7171 36.9072 14.7676C36.9121 14.7927 36.9116 14.8185 36.9058 14.8434C36.9 14.8683 36.8889 14.8916 36.8734 14.9117C36.7133 15.1418 36.5037 15.3322 36.2603 15.4688C36.0168 15.6054 35.7459 15.6847 35.4679 15.7006L35.4153 15.6854ZM34.8816 15.1545C35.0513 15.2647 35.2513 15.3178 35.4528 15.3062C35.8306 15.2862 36.1856 15.1173 36.4412 14.8359C36.1702 14.6792 35.8576 14.6116 35.5468 14.6425C35.4065 14.6759 35.2748 14.7387 35.1601 14.827C35.0455 14.9152 34.9506 15.0268 34.8816 15.1545Z" fill="#231F20"/>
<path id="Vector_35" d="M39.3724 12.1435C39.3311 11.3471 40.124 10.2473 40.9921 10.7327C41.142 10.8297 41.2709 10.9563 41.371 11.1049C41.4711 11.2535 41.5404 11.421 41.5746 11.5974C41.9917 13.2433 40.7253 13.8273 39.8685 14.2521" fill="white"/>
<path id="Vector_36" d="M39.8764 14.4111C39.8409 14.4127 39.8056 14.4039 39.7749 14.3857C39.7443 14.3675 39.7195 14.3408 39.7035 14.3087C39.6919 14.2876 39.6845 14.2644 39.682 14.2404C39.6795 14.2165 39.6818 14.1922 39.6888 14.1692C39.6959 14.1461 39.7074 14.1248 39.7229 14.1064C39.7383 14.088 39.7573 14.0729 39.7787 14.0622C40.6731 13.6374 41.7554 13.1216 41.3796 11.6426C41.3539 11.4892 41.2973 11.3427 41.2132 11.2123C41.1292 11.0818 41.0195 10.9701 40.891 10.8841C40.7797 10.8178 40.6519 10.785 40.5227 10.7897C40.3935 10.7944 40.2683 10.8364 40.162 10.9107C39.9711 11.0478 39.8157 11.2294 39.7091 11.4399C39.6025 11.6505 39.5477 11.884 39.5494 12.1204C39.551 12.1452 39.5476 12.1699 39.5395 12.1933C39.5314 12.2167 39.5187 12.2382 39.5023 12.2566C39.4858 12.2749 39.4659 12.2898 39.4437 12.3003C39.4214 12.3108 39.3973 12.3167 39.3728 12.3177C39.3481 12.3203 39.3231 12.3177 39.2994 12.3099C39.2758 12.3022 39.254 12.2895 39.2356 12.2727C39.2171 12.2558 39.2024 12.2353 39.1924 12.2123C39.1824 12.1893 39.1773 12.1645 39.1774 12.1394C39.1711 11.8355 39.2396 11.5348 39.3766 11.2641C39.5137 10.9934 39.7151 10.7612 39.9628 10.5883C40.125 10.4783 40.3146 10.4165 40.5099 10.4098C40.7052 10.4031 40.8984 10.4518 41.0677 10.5504C41.2414 10.6583 41.3911 10.8012 41.5075 10.9702C41.6239 11.1392 41.7045 11.3307 41.7441 11.5326C42.1951 13.3188 40.7971 13.9825 39.9628 14.3769C39.9376 14.396 39.9077 14.4079 39.8764 14.4111Z" fill="#231F20"/>
<path id="Vector_37" d="M32.2021 4.7177C32.2021 4.7177 31.7512 7.70991 31.7812 8.4646C32.9189 7.77747 34.2137 7.39984 35.5392 7.3686C37.6024 7.3686 40.5524 8.60872 41.4092 9.07139L40.8004 4.41431C40.8004 4.41431 39.3761 3.62169 36.2908 3.93267C33.2055 4.24365 32.2021 4.7177 32.2021 4.7177Z" fill="white"/>
<path id="Vector_38" d="M41.4057 9.26109C41.3743 9.26079 41.3433 9.253 41.3155 9.23834C40.5263 8.8098 37.5575 7.56968 35.5357 7.5583H35.5094C34.2301 7.59436 32.9814 7.9613 31.8829 8.62397C31.8551 8.64203 31.823 8.65235 31.7899 8.65389C31.7569 8.65543 31.724 8.64814 31.6946 8.63274C31.6653 8.61735 31.6405 8.5944 31.6227 8.56623C31.605 8.53805 31.5949 8.50564 31.5935 8.47227C31.5635 7.71379 31.9994 4.81259 32.0182 4.67986C32.0229 4.64906 32.035 4.61987 32.0533 4.59478C32.0716 4.56969 32.0957 4.54943 32.1234 4.53575C32.1647 4.51678 33.1832 4.04273 36.2572 3.73175C39.3313 3.42078 40.8269 4.21339 40.8758 4.26648C40.9014 4.28153 40.9233 4.30238 40.9396 4.32738C40.9559 4.35239 40.9662 4.38088 40.9697 4.4106L41.5823 9.06389C41.5863 9.09896 41.5807 9.13446 41.5661 9.16654C41.5516 9.19863 41.5286 9.22608 41.4996 9.24592C41.4703 9.25956 41.4378 9.2648 41.4057 9.26109ZM35.5094 7.17906H35.5394C37.4485 7.17906 40.049 8.20301 41.1764 8.74153L40.6278 4.53954C40.2858 4.38784 38.8878 3.8607 36.3098 4.12237C33.7995 4.37646 32.6833 4.73674 32.3789 4.85431C32.3075 5.32457 32.0332 7.22457 31.9806 8.13095C33.0641 7.53235 34.2744 7.20585 35.5094 7.17906Z" fill="#231F20"/>
<path id="Vector_39" d="M32.1648 3.09082C32.1648 3.09082 32.5594 5.15768 34.1265 5.1994C35.6936 5.24112 37.5087 4.13373 37.5087 4.13373C37.5087 4.13373 40.7819 5.69242 42.1874 3.88343" fill="white"/>
<path id="Vector_40" d="M34.213 5.40415H34.1115C32.4129 5.35864 31.9882 3.23489 31.9694 3.1287C31.9647 3.1038 31.965 3.07821 31.9701 3.05339C31.9752 3.02858 31.9851 3.00502 31.9992 2.98407C32.0133 2.96311 32.0314 2.94517 32.0524 2.93127C32.0734 2.91737 32.0969 2.90778 32.1216 2.90305C32.1463 2.89832 32.1717 2.89854 32.1962 2.9037C32.2208 2.90886 32.2442 2.91885 32.2649 2.93311C32.2857 2.94738 32.3035 2.96563 32.3173 2.98682C32.331 3.00802 32.3405 3.03174 32.3452 3.05664C32.3452 3.05664 32.721 4.9756 34.1265 5.00974C35.6297 5.05525 37.3997 3.98199 37.4185 3.97441C37.4456 3.95947 37.476 3.95164 37.5068 3.95164C37.5377 3.95164 37.5681 3.95947 37.5952 3.97441C37.6252 3.97441 40.7481 5.44586 42.0446 3.7772C42.059 3.75533 42.0778 3.73672 42.0997 3.72255C42.1216 3.70838 42.1462 3.69895 42.1719 3.69486C42.1976 3.69078 42.2238 3.69212 42.249 3.69881C42.2742 3.7055 42.2977 3.71739 42.318 3.73373C42.3384 3.75007 42.3552 3.7705 42.3673 3.79373C42.3795 3.81695 42.3867 3.84247 42.3885 3.86866C42.3904 3.89485 42.3868 3.92114 42.3781 3.94588C42.3694 3.97061 42.3556 3.99324 42.3378 4.01233C40.9774 5.76443 38.0837 4.60774 37.5238 4.36123C37.148 4.56602 35.6147 5.40415 34.213 5.40415Z" fill="#231F20"/>
<path id="Vector_41" d="M40.7593 17.5817L37.3771 18.0899L36.0543 19.512L35.4906 18.0519L33.1155 17.2935L32.8713 19.4969L28.279 22.2122C28.279 22.2122 25.8588 42.8505 26.7758 48.9032C26.7758 48.9032 43.0555 49.5024 48.1025 46.5595C48.1025 46.5595 44.9006 31.3102 45.3666 28.4621C45.6636 26.4415 45.8244 24.4028 45.8477 22.3601L41.0299 19.5386L40.7593 17.5817Z" fill="#68E1FD"/>
<path id="Vector_42" d="M17.2003 20.5737C17.2003 20.5737 19.0793 17.919 19.2296 17.3539C19.3799 16.7889 19.3198 14.54 19.1394 14.4603C18.9281 14.4652 18.7212 14.5219 18.5365 14.6257C18.3518 14.7294 18.195 14.877 18.0796 15.0557C17.9568 15.5062 17.885 15.9693 17.8654 16.4362C17.4662 16.4141 17.0706 16.5232 16.738 16.7471C16.738 16.7471 16.2607 15.4122 16.2344 15.2795C16.2081 15.1467 17.0913 14.0849 17.0913 14.0849C17.2656 14.2177 17.4665 14.3106 17.68 14.3571C17.8936 14.4036 18.1146 14.4026 18.3277 14.3541C18.9515 14.1493 19.0266 13.9749 18.7448 13.5729C18.4629 13.1709 16.2457 12.7272 16.2457 12.7272L14.7688 14.2062C14.7688 14.2062 14.5471 12.0559 14.7688 11.5933C14.9905 11.1306 15.4227 9.93217 15.1935 9.55293C14.9642 9.17369 14.4719 9.33297 14.2126 9.7198C13.9533 10.1066 13.2994 11.4112 13.2731 11.8018C13.2468 12.1925 13.2731 14.1455 13.2731 14.1455C13.2731 14.1455 12.5215 12.4655 12.5892 12.1318C12.6568 11.798 13.4761 10.2128 13.1416 9.85633C12.8071 9.49984 11.3528 11.4036 11.2213 12.1318C11.0897 12.8599 12.0067 14.942 12.0067 14.942C12.0067 14.942 10.7478 13.8535 10.7478 13.6449C10.7478 13.4364 10.8342 11.6919 10.6313 11.4567C10.4283 11.2216 9.90972 11.2633 9.82705 12.1242C9.74437 12.9851 9.76316 14.2631 10.0187 14.7789C10.2742 15.2946 12.375 18.9088 12.4764 19.2994C12.5779 19.6901 12.281 21.7455 12.281 21.7455L16.7155 21.9465L17.2003 20.5737Z" fill="white"/>
<path id="Vector_43" d="M16.7118 22.1326L12.2774 21.9316C12.2513 21.9303 12.2258 21.9235 12.2024 21.9117C12.1791 21.8998 12.1584 21.8832 12.1418 21.8629C12.1252 21.8425 12.113 21.8189 12.1059 21.7935C12.0988 21.7681 12.0971 21.7415 12.1008 21.7154C12.2341 20.9313 12.2994 20.137 12.2962 19.3414C12.2398 19.1176 11.3041 17.4452 10.684 16.3606C10.2744 15.6324 9.9512 15.056 9.85349 14.8436C9.56413 14.252 9.56789 12.8677 9.64305 12.0827C9.70693 11.4001 10.0188 11.2029 10.1917 11.146C10.2936 11.1117 10.4032 11.1085 10.5068 11.1368C10.6104 11.1652 10.7035 11.2238 10.7742 11.3053C10.9095 11.4608 10.9922 11.8855 10.9433 13.4631V13.6186C11.1219 13.8368 11.318 14.0398 11.5296 14.2254C11.2665 13.5314 10.9546 12.5643 11.041 12.0713C11.165 11.3925 12.3225 9.79588 12.92 9.61005C12.9846 9.58625 13.0547 9.58218 13.1215 9.59837C13.1884 9.61456 13.249 9.65029 13.2958 9.70107C13.6002 10.0348 13.3184 10.816 12.9501 11.7262C12.8749 11.912 12.8035 12.0865 12.7847 12.1586C12.8395 12.5169 12.9445 12.8655 13.0967 13.1939C13.0967 12.6288 13.0967 11.9803 13.0967 11.7679C13.1267 11.3242 13.8107 9.98171 14.0662 9.59488C14.1467 9.46329 14.2566 9.35255 14.3871 9.27154C14.5176 9.19054 14.6651 9.14152 14.8178 9.12842C14.9224 9.12945 15.0248 9.15798 15.1151 9.21118C15.2054 9.26439 15.2804 9.34043 15.3327 9.43181C15.6559 9.95896 15.0508 11.3963 14.9193 11.658C14.7877 11.9196 14.8253 12.9588 14.8892 13.7627L16.0843 12.5681C16.1061 12.5475 16.1324 12.5322 16.1611 12.5237C16.1899 12.5151 16.2202 12.5134 16.2496 12.5188C16.7908 12.6212 18.5683 12.9967 18.8802 13.4442C18.9516 13.5252 19.0037 13.6217 19.0323 13.7263C19.061 13.8308 19.0655 13.9406 19.0456 14.0472C19.0194 14.1263 18.9711 14.1961 18.9065 14.2482C18.9978 14.2263 19.0934 14.2329 19.1809 14.2671C19.5792 14.4378 19.4627 17.0659 19.3763 17.3807C19.2184 17.9572 17.5875 20.2781 17.3357 20.6384L16.8697 21.9847C16.8611 22.0225 16.8414 22.0568 16.8133 22.0831C16.7852 22.1095 16.7498 22.1267 16.7118 22.1326ZM12.4879 21.5599L16.5803 21.7458L17.0087 20.5057C17.0132 20.4891 17.0208 20.4737 17.0313 20.4601C17.7829 19.4059 18.9103 17.6955 19.0343 17.2973C19.1472 16.4154 19.1383 15.522 19.008 14.6426C18.7007 14.7102 18.4275 14.8864 18.2376 15.1394C18.12 15.5673 18.0532 16.0078 18.0384 16.4516C18.0353 16.5026 18.0124 16.5503 17.9745 16.5843C17.9568 16.6016 17.9354 16.6147 17.912 16.6225C17.8886 16.6304 17.8637 16.6329 17.8393 16.6298C17.4893 16.6161 17.1438 16.7129 16.8509 16.9067C16.8265 16.9237 16.7988 16.9352 16.7696 16.9404C16.7404 16.9456 16.7105 16.9445 16.6818 16.937C16.6535 16.9284 16.6277 16.9133 16.6061 16.8929C16.5846 16.8725 16.5681 16.8473 16.5578 16.8194C16.445 16.5047 16.073 15.458 16.0467 15.3252C16.0204 15.1925 16.0053 15.1053 16.9448 13.9713C16.9761 13.9352 17.0196 13.9121 17.0668 13.9065C17.114 13.9008 17.1617 13.9132 17.2004 13.941C17.3514 14.0548 17.5246 14.135 17.7086 14.1762C17.8926 14.2174 18.0831 14.2187 18.2677 14.1799C18.6435 14.0586 18.6998 13.9827 18.7073 13.9562C18.7149 13.9296 18.7074 13.8841 18.5871 13.6869C18.4668 13.4897 17.3094 13.1408 16.306 12.9284L14.8967 14.3354C14.8717 14.3608 14.8401 14.3786 14.8055 14.3867C14.771 14.3947 14.7348 14.3927 14.7013 14.3809C14.6681 14.3685 14.6389 14.3471 14.617 14.319C14.5951 14.2908 14.5814 14.2572 14.5773 14.2216C14.5397 13.8424 14.3631 11.9879 14.6111 11.5025C14.8892 10.9526 15.1936 9.90207 15.0395 9.65177C15.0202 9.61399 14.9911 9.58212 14.9554 9.55945C14.9198 9.53679 14.8787 9.52414 14.8366 9.52283C14.7423 9.53493 14.6519 9.5681 14.5719 9.61993C14.492 9.67176 14.4245 9.74094 14.3744 9.82243C13.9874 10.4419 13.6829 11.11 13.4687 11.8097C13.4386 12.1889 13.4687 14.1192 13.4687 14.1382C13.4682 14.1822 13.4531 14.2248 13.4259 14.2591C13.3986 14.2935 13.3608 14.3177 13.3184 14.3278C13.2766 14.3369 13.2329 14.3314 13.1946 14.3121C13.1564 14.2928 13.1258 14.2609 13.1079 14.2216C12.8712 13.6983 12.3225 12.443 12.4089 12.0865C12.4585 11.9197 12.5188 11.7563 12.5893 11.5973C12.7359 11.2408 13.1756 10.1562 13.0065 9.97033C12.7359 9.97033 11.5296 11.4873 11.4093 12.1548C11.3078 12.7085 11.9317 14.2899 12.1835 14.855C12.2017 14.8947 12.2057 14.9395 12.1949 14.9819C12.1841 15.0242 12.1591 15.0615 12.1241 15.0874C12.0892 15.1133 12.0464 15.1262 12.0031 15.1239C11.9598 15.1217 11.9187 15.1043 11.8866 15.0749C10.5638 13.9372 10.5638 13.7134 10.5638 13.6338C10.5638 13.5542 10.5638 13.5466 10.5638 13.4669C10.6089 11.9917 10.5337 11.6428 10.4848 11.5707C10.4628 11.5458 10.4338 11.5281 10.4016 11.52C10.3694 11.5119 10.3356 11.5137 10.3045 11.5252C10.1541 11.5745 10.0452 11.8021 10.0151 12.1358C9.92865 13.0308 9.96247 14.233 10.188 14.6957C10.2781 14.8815 10.6164 15.4807 11.0072 16.1747C11.9317 17.8168 12.5893 18.9963 12.657 19.2504C12.7396 19.5993 12.5705 20.9759 12.4879 21.5599ZM16.4262 15.2645C16.4713 15.42 16.6517 15.9358 16.8321 16.4478C17.0948 16.3175 17.3815 16.2439 17.6739 16.2316C17.6951 15.802 17.7683 15.3766 17.8919 14.9649C17.9772 14.795 18.1072 14.652 18.2677 14.5516C17.8765 14.6142 17.4761 14.532 17.1403 14.3202C16.8806 14.6177 16.642 14.9333 16.4262 15.2645Z" fill="#231F20"/>
<path id="Vector_44" d="M13.9797 16.2808C14.3304 16.5974 14.6062 16.9894 14.787 17.4278C14.9678 17.8662 15.0489 18.3399 15.0245 18.8141C15.3811 17.9697 15.9756 17.2497 16.7344 16.7434" fill="white"/>
<path id="Vector_45" d="M15.0245 19.0038H14.9794C14.9357 18.9931 14.8973 18.9669 14.8711 18.93C14.8449 18.8931 14.8327 18.848 14.8366 18.8028C14.8554 18.3596 14.7776 17.9177 14.6087 17.5082C14.4399 17.0987 14.1842 16.7315 13.8595 16.4325C13.8375 16.4177 13.8188 16.3984 13.8047 16.3758C13.7905 16.3532 13.7813 16.3279 13.7775 16.3015C13.7738 16.275 13.7756 16.2481 13.7829 16.2224C13.7902 16.1967 13.8028 16.1729 13.8198 16.1524C13.8369 16.132 13.858 16.1154 13.8818 16.1038C13.9057 16.0922 13.9317 16.0858 13.9581 16.085C13.9846 16.0843 14.0109 16.0891 14.0354 16.0994C14.0598 16.1096 14.0819 16.1249 14.1001 16.1443C14.6644 16.6545 15.0461 17.3383 15.1861 18.0898C15.5548 17.4826 16.0513 16.9647 16.6405 16.5728C16.6833 16.5482 16.7339 16.5415 16.7816 16.5543C16.8292 16.567 16.87 16.5981 16.8951 16.6409C16.9202 16.6836 16.9277 16.7346 16.9159 16.7829C16.9042 16.8312 16.8741 16.8729 16.8321 16.899C16.1087 17.3852 15.5408 18.0729 15.1974 18.8786C15.1849 18.915 15.1616 18.9465 15.1307 18.9689C15.0997 18.9913 15.0626 19.0035 15.0245 19.0038Z" fill="#231F20"/>
<path id="Vector_46" d="M11.6611 15.1734C11.6611 15.1734 13.2169 14.2709 14.1715 14.2253L11.6611 15.1734Z" fill="white"/>
<path id="Vector_47" d="M11.6611 15.363C11.6201 15.3626 11.5803 15.3486 11.5479 15.3233C11.5155 15.2979 11.4922 15.2626 11.4815 15.2226C11.4709 15.1826 11.4735 15.1402 11.4889 15.1019C11.5044 15.0636 11.5319 15.0314 11.5671 15.0103C11.6348 14.9724 13.1718 14.0849 14.1602 14.0356C14.1848 14.0344 14.2095 14.0381 14.2328 14.0464C14.256 14.0548 14.2775 14.0677 14.2958 14.0845C14.3141 14.1012 14.329 14.1214 14.3396 14.1439C14.3501 14.1665 14.3562 14.1909 14.3574 14.2158C14.3587 14.2407 14.355 14.2656 14.3467 14.2891C14.3384 14.3125 14.3256 14.3341 14.3091 14.3526C14.2925 14.3711 14.2725 14.3861 14.2501 14.3968C14.2278 14.4075 14.2036 14.4136 14.1789 14.4149C13.2808 14.4604 11.7701 15.3326 11.755 15.344C11.7257 15.3578 11.6934 15.3643 11.6611 15.363Z" fill="#231F20"/>
<path id="Vector_48" d="M57.1894 18.321C57.3201 17.8036 57.3595 17.267 57.3059 16.7358C57.1932 16.0191 57.3473 14.5021 57.1556 13.956C56.9639 13.4099 54.9384 11.8322 55.0812 11.5288C55.2191 11.3464 55.4123 11.2143 55.6314 11.1527C55.8504 11.0911 56.0834 11.1033 56.295 11.1875C56.7309 11.3885 58.4033 13.1179 58.4033 13.1179L62.6723 10.668L66.0057 10.448C66.0057 10.448 63.1008 14.3163 62.7851 14.961C62.4694 15.6057 61.947 17.0847 61.3871 17.4526C61.1008 17.6469 60.7946 17.8096 60.4739 17.938L59.9328 19.1212L57.1894 18.321Z" fill="white"/>
<path id="Vector_49" d="M59.9326 19.311H59.88L57.1367 18.507C57.0895 18.4929 57.0496 18.461 57.0251 18.4179C57.0006 18.3748 56.9934 18.3239 57.0051 18.2757C57.1313 17.7807 57.1695 17.2671 57.1179 16.7587C57.0735 16.3381 57.0584 15.9148 57.0728 15.4921C57.1005 14.997 57.069 14.5004 56.9788 14.013C56.6827 13.5917 56.3356 13.2095 55.9454 12.8753C55.081 12.0296 54.7879 11.711 54.9119 11.4531C55.0706 11.224 55.3018 11.0564 55.5676 10.9778C55.8334 10.8992 56.1177 10.9144 56.3738 11.0208C56.7797 11.2066 58.0423 12.4809 58.4369 12.8829L62.5707 10.505C62.5951 10.4918 62.622 10.484 62.6497 10.4823L65.9868 10.2623C66.0226 10.2601 66.0583 10.2683 66.0897 10.2859C66.1211 10.3035 66.1468 10.3299 66.1638 10.3618C66.1808 10.3937 66.1884 10.4299 66.1857 10.466C66.1829 10.5022 66.17 10.5368 66.1484 10.5657C65.1487 11.9006 63.1908 14.5515 62.9465 15.0483C62.8751 15.1963 62.7925 15.3859 62.7023 15.5945C62.3716 16.3529 61.9507 17.301 61.4809 17.6158C61.2033 17.7992 60.9103 17.9578 60.6053 18.0899L60.0942 19.2048C60.08 19.2361 60.0573 19.2627 60.0287 19.2815C60.0001 19.3003 59.9667 19.3106 59.9326 19.311ZM57.411 18.1733L59.8312 18.8787L60.3047 17.8434C60.3148 17.82 60.3298 17.7991 60.3486 17.7821C60.3674 17.7651 60.3895 17.7524 60.4136 17.7448C60.7198 17.6208 61.0121 17.4645 61.2855 17.2783C61.6613 17.028 62.0897 16.0609 62.364 15.4238C62.458 15.2076 62.5444 15.0142 62.6158 14.8625C62.8864 14.3164 64.8969 11.6048 65.6222 10.6491L62.7361 10.8388L58.5083 13.2659C58.4726 13.2864 58.4313 13.2946 58.3905 13.2891C58.3498 13.2836 58.312 13.2648 58.2829 13.2356C57.644 12.5757 56.5241 11.4797 56.2272 11.3394C56.0655 11.28 55.8902 11.2689 55.7223 11.3072C55.5544 11.3455 55.4009 11.4317 55.2802 11.5555C55.5532 11.938 55.8642 12.2912 56.2084 12.6098C56.821 13.209 57.2306 13.6224 57.3358 13.903C57.4469 14.4312 57.4861 14.9722 57.4523 15.511C57.4388 15.9135 57.4526 16.3164 57.4937 16.717C57.5479 17.2087 57.5199 17.7061 57.411 18.1885V18.1733Z" fill="#231F20"/>
<path id="Vector_50" d="M60.147 12.8716C61.1012 12.9878 62.0254 13.2837 62.8715 13.7438L60.147 12.8716Z" fill="white"/>
<path id="Vector_51" d="M62.8714 13.9333C62.8354 13.9332 62.8002 13.9227 62.7699 13.903C61.9518 13.4614 61.06 13.176 60.1393 13.061C60.0895 13.0555 60.0439 13.0302 60.0125 12.9908C59.9811 12.9513 59.9666 12.9009 59.9721 12.8506C59.9776 12.8003 60.0026 12.7542 60.0417 12.7226C60.0808 12.6909 60.1308 12.6763 60.1806 12.6818C61.1631 12.7998 62.1144 13.1048 62.9841 13.5806C63.0051 13.5938 63.0233 13.611 63.0377 13.6313C63.0521 13.6516 63.0624 13.6745 63.068 13.6989C63.0736 13.7232 63.0744 13.7483 63.0703 13.773C63.0662 13.7976 63.0574 13.8211 63.0442 13.8423C63.0258 13.8714 63.0002 13.8951 62.9699 13.9111C62.9395 13.9271 62.9056 13.9347 62.8714 13.9333Z" fill="#231F20"/>
<path id="Vector_52" d="M60.9321 13.0117L63.7469 10.6946L60.9321 13.0117Z" fill="white"/>
<path id="Vector_53" d="M60.9324 13.2015C60.8936 13.2013 60.8558 13.1889 60.8242 13.1661C60.7927 13.1434 60.7688 13.1113 60.7561 13.0743C60.7433 13.0373 60.7422 12.9972 60.7529 12.9595C60.7636 12.9219 60.7856 12.8885 60.8159 12.864L63.6269 10.5506C63.6455 10.5318 63.6677 10.5172 63.6922 10.5076C63.7167 10.4981 63.743 10.4938 63.7692 10.4951C63.7954 10.4964 63.8211 10.5032 63.8446 10.5152C63.8681 10.5271 63.8888 10.5439 63.9054 10.5644C63.922 10.5849 63.9342 10.6088 63.9412 10.6343C63.9481 10.6599 63.9497 10.6867 63.9458 10.7129C63.9418 10.7391 63.9325 10.7642 63.9184 10.7865C63.9042 10.8089 63.8856 10.828 63.8637 10.8426L61.0527 13.1598C61.0181 13.1863 60.9759 13.201 60.9324 13.2015Z" fill="#231F20"/>
<path id="Vector_54" d="M62.1047 13.3645L64.8406 10.6226L62.1047 13.3645Z" fill="white"/>
<path id="Vector_55" d="M62.1049 13.5541C62.0541 13.554 62.0054 13.5335 61.9696 13.4972C61.9349 13.4611 61.9155 13.4129 61.9155 13.3626C61.9155 13.3123 61.9349 13.2641 61.9696 13.228L64.7054 10.4898C64.7408 10.4541 64.7888 10.4341 64.8388 10.4341C64.8889 10.4341 64.9368 10.4541 64.9722 10.4898C65.0076 10.5256 65.0275 10.574 65.0275 10.6245C65.0275 10.675 65.0076 10.7234 64.9722 10.7591L62.2364 13.4972C62.2017 13.533 62.1544 13.5534 62.1049 13.5541Z" fill="#231F20"/>
<path id="Vector_56" d="M58.4031 13.1182C58.4031 13.1182 59.8649 14.8172 59.5605 16.1521L58.4031 13.1182Z" fill="white"/>
<path id="Vector_57" d="M59.5606 16.3567H59.5192C59.471 16.345 59.4293 16.3145 59.4032 16.2719C59.3772 16.2292 59.3689 16.1779 59.3802 16.1291C59.6583 14.889 58.2753 13.2621 58.2528 13.2469C58.2181 13.2108 58.1987 13.1625 58.1987 13.1123C58.1987 13.062 58.2181 13.0137 58.2528 12.9777C58.2699 12.96 58.2904 12.946 58.313 12.9364C58.3356 12.9268 58.3598 12.9219 58.3843 12.9219C58.4088 12.9219 58.4331 12.9268 58.4556 12.9364C58.4782 12.946 58.4987 12.96 58.5158 12.9777C58.5797 13.0497 60.019 14.7677 59.7147 16.1936C59.7102 16.2341 59.6927 16.2719 59.6649 16.3014C59.6371 16.3309 59.6004 16.3503 59.5606 16.3567Z" fill="#231F20"/>
<path id="Vector_58" d="M49.7898 8.84009C49.7898 8.84009 51.7552 9.56823 51.8454 11.1914L70.0379 11.2862C70.1431 9.66304 72.1161 8.95386 72.1161 8.95386L49.7898 8.84009Z" fill="white"/>
<path id="Vector_59" d="M70.0344 11.4721L51.8457 11.3773C51.7977 11.3774 51.7516 11.359 51.7166 11.3258C51.6817 11.2927 51.6606 11.2473 51.6578 11.199C51.5751 9.72379 49.7412 9.0184 49.7224 9.01461C49.6814 8.99855 49.6473 8.9685 49.626 8.9297C49.6048 8.8909 49.5976 8.84579 49.6059 8.80223C49.6131 8.75837 49.6356 8.71857 49.6694 8.69004C49.7032 8.66151 49.746 8.64615 49.79 8.64675L72.1163 8.76052C72.1604 8.75992 72.2032 8.77528 72.237 8.80381C72.2708 8.83234 72.2933 8.87215 72.3005 8.91601C72.3085 8.96004 72.3008 9.00551 72.2788 9.04438C72.2568 9.08325 72.2219 9.113 72.1802 9.12838C72.1614 9.12838 70.3238 9.8186 70.2223 11.2938C70.2194 11.3421 70.1984 11.3875 70.1634 11.4206C70.1285 11.4538 70.0823 11.4722 70.0344 11.4721ZM52.0148 10.998L69.869 11.0891C69.9551 10.6775 70.1291 10.2898 70.379 9.95308C70.6289 9.6164 70.9487 9.33882 71.3159 9.13976L50.5717 9.03357C50.9402 9.23525 51.2604 9.51602 51.5097 9.85608C51.759 10.1962 51.9314 10.5873 52.0148 11.0018V10.998Z" fill="#231F20"/>
<path id="Vector_60" d="M28.2677 22.2085L17.5762 28.4736L17.6138 21.0215L11.601 21.2149C11.601 21.2149 8.75241 32.7704 10.4736 35.6678C12.1947 38.5652 24.5849 34.568 29.2636 30.5632L28.2677 22.2085Z" fill="#68E1FD"/>
<path id="Vector_61" d="M45.8476 22.3562L52.612 25.3901L56.7833 17.0847L61.6274 18.2566C61.6274 18.2566 58.7788 32.7095 55.314 32.5198C51.8491 32.3302 39.2786 28.4089 39.2786 28.4089L45.8476 22.3562Z" fill="#68E1FD"/>
<g id="Group">
<path id="Vector_62" d="M29.1582 47.6594C29.109 47.6594 29.0618 47.64 29.0266 47.6052C28.9915 47.5705 28.9713 47.5232 28.9703 47.4736C28.9139 41.5081 30.0526 25.2425 30.0639 25.0756C30.0658 25.0454 30.0751 25.0161 30.0908 24.9904C30.1065 24.9646 30.1282 24.9431 30.1541 24.9277L35.8362 21.5866V19.5083C35.839 19.4587 35.8603 19.4119 35.8959 19.3775C35.9314 19.343 35.9785 19.3234 36.0278 19.3225C36.0523 19.3225 36.0766 19.3274 36.0992 19.337C36.1218 19.3466 36.1422 19.3606 36.1594 19.3783C36.1765 19.3959 36.19 19.4169 36.199 19.4399C36.2081 19.4628 36.2125 19.4874 36.212 19.5121V21.7004C36.2115 21.7329 36.2026 21.7647 36.1861 21.7927C36.1696 21.8206 36.1461 21.8437 36.118 21.8596L30.4322 25.2045C30.3344 26.5888 29.3047 41.766 29.3461 47.4698C29.3461 47.5194 29.3268 47.5671 29.2924 47.6026C29.258 47.638 29.2111 47.6584 29.1619 47.6594H29.1582Z" fill="#231F20"/>
<path id="Vector_63" d="M32.969 26.8353C33.3488 26.8353 33.6567 26.5246 33.6567 26.1413C33.6567 25.758 33.3488 25.4473 32.969 25.4473C32.5892 25.4473 32.2812 25.758 32.2812 26.1413C32.2812 26.5246 32.5892 26.8353 32.969 26.8353Z" fill="#231F20"/>
<path id="Vector_64" d="M38.4404 26.8617C38.8202 26.8617 39.1281 26.5509 39.1281 26.1676C39.1281 25.7844 38.8202 25.4736 38.4404 25.4736C38.0606 25.4736 37.7527 25.7844 37.7527 26.1676C37.7527 26.5509 38.0606 26.8617 38.4404 26.8617Z" fill="#231F20"/>
<path id="Vector_65" d="M59.583 20.3238C59.9628 20.3238 60.2707 20.0131 60.2707 19.6298C60.2707 19.2465 59.9628 18.9358 59.583 18.9358C59.2032 18.9358 58.8953 19.2465 58.8953 19.6298C58.8953 20.0131 59.2032 20.3238 59.583 20.3238Z" fill="#231F20"/>
<path id="Vector_66" d="M32.3488 35.8499C32.7287 35.8499 33.0366 35.5392 33.0366 35.1559C33.0366 34.7726 32.7287 34.4619 32.3488 34.4619C31.969 34.4619 31.6611 34.7726 31.6611 35.1559C31.6611 35.5392 31.969 35.8499 32.3488 35.8499Z" fill="#231F20"/>
<path id="Vector_67" d="M16.0129 23.2777C16.3927 23.2777 16.7006 22.967 16.7006 22.5837C16.7006 22.2004 16.3927 21.8896 16.0129 21.8896C15.6331 21.8896 15.3252 22.2004 15.3252 22.5837C15.3252 22.967 15.6331 23.2777 16.0129 23.2777Z" fill="#231F20"/>
<path id="Vector_68" d="M36.9187 35.8726C37.2985 35.8726 37.6064 35.5619 37.6064 35.1786C37.6064 34.7953 37.2985 34.4846 36.9187 34.4846C36.5389 34.4846 36.231 34.7953 36.231 35.1786C36.231 35.5619 36.5389 35.8726 36.9187 35.8726Z" fill="#231F20"/>
<path id="Vector_69" d="M31.6198 44.4168C31.9997 44.4168 32.3076 44.1061 32.3076 43.7228C32.3076 43.3395 31.9997 43.0288 31.6198 43.0288C31.24 43.0288 30.9321 43.3395 30.9321 43.7228C30.9321 44.1061 31.24 44.4168 31.6198 44.4168Z" fill="#231F20"/>
<path id="Vector_70" d="M36.9787 44.4434C37.3585 44.4434 37.6664 44.1327 37.6664 43.7494C37.6664 43.3661 37.3585 43.0554 36.9787 43.0554C36.5989 43.0554 36.291 43.3661 36.291 43.7494C36.291 44.1327 36.5989 44.4434 36.9787 44.4434Z" fill="#231F20"/>
<path id="Vector_71" d="M26.5956 43.4649C26.547 43.4649 26.5003 43.446 26.4653 43.412C26.4303 43.3781 26.4096 43.3318 26.4077 43.2828C26.2198 37.8142 27.8207 25.504 27.8357 25.3978C27.8423 25.3481 27.8681 25.3029 27.9075 25.2724C27.947 25.2418 27.9968 25.2283 28.0462 25.2347C28.0708 25.2375 28.0946 25.2453 28.1162 25.2576C28.1377 25.2699 28.1566 25.2864 28.1717 25.3062C28.1868 25.3261 28.1978 25.3488 28.204 25.373C28.2102 25.3972 28.2114 25.4224 28.2077 25.4471C28.2077 25.5685 26.6031 37.8331 26.7722 43.2715C26.7732 43.2964 26.7693 43.3212 26.7608 43.3446C26.7523 43.368 26.7393 43.3895 26.7225 43.4078C26.7058 43.4261 26.6856 43.4409 26.6632 43.4514C26.6407 43.4618 26.6165 43.4677 26.5918 43.4687L26.5956 43.4649Z" fill="#231F20"/>
<path id="Vector_72" d="M55.3026 32.7097C53.0478 32.7097 41.9091 29.4065 41.4356 29.2662C41.3858 29.2516 41.3437 29.2177 41.3187 29.1718C41.2937 29.1259 41.2877 29.0719 41.3022 29.0216C41.3166 28.9713 41.3503 28.9289 41.3957 28.9036C41.4412 28.8784 41.4947 28.8724 41.5446 28.887C41.6573 28.9211 53.0967 32.3001 55.3026 32.3001C55.3525 32.3001 55.4003 32.3201 55.4355 32.3557C55.4707 32.3912 55.4905 32.4395 55.4905 32.4898C55.4905 32.54 55.4707 32.5883 55.4355 32.6238C55.4003 32.6594 55.3525 32.6794 55.3026 32.6794V32.7097Z" fill="#231F20"/>
<path id="Vector_73" d="M11.4506 24.3663C11.4008 24.3663 11.353 24.3464 11.3177 24.3108C11.2825 24.2752 11.2627 24.227 11.2627 24.1767C11.2627 24.1264 11.2825 24.0782 11.3177 24.0426C11.353 24.0071 11.4008 23.9871 11.4506 23.9871L16.9561 23.7671C17.0057 23.7661 17.0537 23.7844 17.0902 23.8184C17.1266 23.8523 17.1486 23.8992 17.1515 23.9492C17.1516 23.9989 17.1331 24.0469 17.0997 24.0835C17.0662 24.1201 17.0203 24.1425 16.9711 24.1464L11.4581 24.3663H11.4506Z" fill="#231F20"/>
<path id="Vector_74" d="M51.214 28.4659C51.1867 28.4712 51.1586 28.4712 51.1313 28.4659C51.1091 28.4551 51.0892 28.4398 51.0729 28.421C51.0566 28.4022 51.0443 28.3803 51.0365 28.3566C51.0288 28.3329 51.0259 28.3078 51.028 28.283C51.0301 28.2581 51.0371 28.2339 51.0487 28.2118L55.8213 18.5601C55.8322 18.5377 55.8473 18.5177 55.8658 18.5012C55.8844 18.4847 55.9059 18.472 55.9293 18.4639C55.9527 18.4558 55.9774 18.4524 56.0021 18.454C56.0268 18.4555 56.0509 18.462 56.0731 18.4729C56.0953 18.4839 56.1152 18.4991 56.1315 18.5178C56.1479 18.5365 56.1604 18.5583 56.1685 18.5819C56.1765 18.6055 56.1798 18.6305 56.1783 18.6553C56.1768 18.6802 56.1704 18.7046 56.1595 18.727L51.3982 28.3597C51.3821 28.3944 51.3557 28.4233 51.3228 28.4423C51.2898 28.4613 51.2518 28.4695 51.214 28.4659Z" fill="#231F20"/>
<path id="Vector_75" d="M60.2596 21.7838H60.2107L55.9341 20.6233C55.8843 20.6103 55.8416 20.5777 55.8156 20.5329C55.7895 20.4881 55.7821 20.4347 55.7951 20.3844C55.808 20.3341 55.8402 20.2911 55.8846 20.2648C55.929 20.2385 55.982 20.231 56.0318 20.2441L60.3084 21.4046C60.3583 21.4111 60.4035 21.4374 60.4341 21.4775C60.4648 21.5177 60.4784 21.5686 60.4719 21.6188C60.4654 21.6691 60.4394 21.7148 60.3996 21.7457C60.3598 21.7766 60.3094 21.7904 60.2596 21.7838Z" fill="#231F20"/>
</g>
<path id="Vector_76" d="M61.1727 2.20702C61.7248 2.20702 62.1724 1.75537 62.1724 1.19824C62.1724 0.6411 61.7248 0.189453 61.1727 0.189453C60.6206 0.189453 60.1731 0.6411 60.1731 1.19824C60.1731 1.75537 60.6206 2.20702 61.1727 2.20702Z" fill="white"/>
<path id="Vector_77" d="M61.169 2.39681C60.854 2.39408 60.5528 2.26596 60.331 2.04032C60.1668 1.87254 60.0554 1.65964 60.0106 1.42826C59.9658 1.19688 59.9896 0.957295 60.079 0.739504C60.1685 0.521712 60.3196 0.335386 60.5135 0.203847C60.7074 0.0723078 60.9354 0.00140015 61.169 0C61.4833 0.00200589 61.784 0.129672 62.0052 0.355019C62.2264 0.580366 62.35 0.885012 62.349 1.2022C62.3498 1.35959 62.3193 1.51555 62.2593 1.66083C62.1992 1.8061 62.1109 1.93773 61.9995 2.0479C61.7787 2.26962 61.4805 2.39492 61.169 2.39681ZM61.169 0.379241C60.9547 0.380229 60.7493 0.466331 60.5974 0.618922C60.4455 0.771512 60.3592 0.978321 60.3573 1.19461C60.3558 1.35649 60.4021 1.51514 60.4904 1.65036C60.5786 1.78558 60.7047 1.89124 60.8526 1.95387C61.0005 2.01651 61.1635 2.0333 61.321 2.00209C61.4784 1.97089 61.623 1.8931 61.7365 1.77864C61.8882 1.62509 61.9733 1.41712 61.9733 1.2003C61.9733 0.983481 61.8882 0.775505 61.7365 0.621956C61.6619 0.545381 61.573 0.484499 61.4749 0.442836C61.3769 0.401174 61.2716 0.379558 61.1652 0.379241H61.169Z" fill="#231F20"/>
<path id="Vector_78" d="M70.9136 8.9882C70.0756 4.64589 66.0545 1.3427 61.2217 1.31994C56.389 1.29719 52.3341 4.55487 51.4509 8.90477L70.9136 8.9882Z" fill="white"/>
<path id="Vector_79" d="M70.9138 9.19643L51.4511 9.09783C51.423 9.09727 51.3955 9.09051 51.3703 9.07802C51.3451 9.06554 51.323 9.04764 51.3054 9.02557C51.2879 9.00351 51.2753 8.97783 51.2687 8.95035C51.262 8.92286 51.2614 8.89423 51.2669 8.86649C52.1801 4.38765 56.3402 1.14893 61.1655 1.14893H61.2219C66.0735 1.17168 70.2411 4.4635 71.0979 8.96888C71.1031 8.99661 71.1024 9.02512 71.0959 9.05256C71.0894 9.08 71.0773 9.10576 71.0603 9.12816C71.042 9.14923 71.0194 9.16619 70.9942 9.17795C70.969 9.18971 70.9415 9.196 70.9138 9.19643ZM51.684 8.71858L70.6845 8.81719C69.7525 4.60002 65.7991 1.55092 61.2181 1.52817H61.1693C56.5995 1.50921 52.6536 4.5128 51.684 8.69962V8.71858Z" fill="#231F20"/>
<path id="Vector_80" d="M49.7937 8.30811L72.1235 8.42216L72.1189 9.33233L49.7891 9.21827L49.7937 8.30811Z" fill="white"/>
<path id="Vector_81" d="M72.1161 9.52282L49.786 9.40905C49.7365 9.40808 49.6893 9.38779 49.6542 9.35244C49.6192 9.31708 49.5991 9.26942 49.5981 9.21943V8.30925C49.5991 8.25926 49.6192 8.21159 49.6542 8.17624C49.6893 8.14089 49.7365 8.1206 49.786 8.11963L72.1161 8.2334C72.1407 8.2331 72.1652 8.238 72.1878 8.2478C72.2105 8.2576 72.2309 8.27207 72.2476 8.29029C72.2817 8.32591 72.3005 8.37354 72.3002 8.42302V9.3332C72.3002 9.38284 72.281 9.43051 72.2465 9.46596C72.2121 9.50141 72.1653 9.52183 72.1161 9.52282ZM49.9739 9.02981L71.9282 9.14358V8.61264L49.9739 8.49887V9.02981Z" fill="#231F20"/>
<path id="Vector_82" d="M60.8887 46.7822L54.6477 45.7011L54.7965 44.8265L61.0374 45.9076L60.8887 46.7822Z" fill="white"/>
<path id="Vector_83" d="M60.8909 46.969H60.8571L54.6188 45.8882C54.5688 45.879 54.5243 45.8504 54.4948 45.8086C54.4806 45.7884 54.4707 45.7656 54.4655 45.7415C54.4603 45.7174 54.4601 45.6925 54.4648 45.6682L54.6113 44.796C54.6205 44.7466 54.6484 44.7027 54.6891 44.6737C54.7298 44.6446 54.78 44.6327 54.8293 44.6405L61.0713 45.7213C61.0958 45.7254 61.1191 45.7345 61.1398 45.7482C61.1606 45.762 61.1782 45.7799 61.1916 45.801C61.2064 45.8208 61.217 45.8435 61.2229 45.8676C61.2287 45.8917 61.2295 45.9168 61.2254 45.9413L61.0751 46.8136C61.0672 46.8571 61.0445 46.8965 61.0108 46.9249C60.9772 46.9532 60.9348 46.9689 60.8909 46.969ZM54.8781 45.5431L60.7481 46.5595L60.8346 46.0589L54.9608 45.0425L54.8781 45.5431Z" fill="#D1D3D4"/>
<path id="Vector_84" d="M51.5895 45.5236L56.3341 46.3455C56.7473 46.4171 57.1398 46.1371 57.2107 45.7201L57.2196 45.6677C57.2905 45.2508 57.0131 44.8547 56.5999 44.7831L51.8552 43.9612C51.442 43.8897 51.0496 44.1697 50.9786 44.5867L50.9697 44.639C50.8988 45.056 51.1763 45.452 51.5895 45.5236Z" fill="white"/>
<path id="Vector_85" d="M56.4641 46.5442H56.3025L51.5599 45.7213C51.3126 45.6777 51.0925 45.5372 50.9475 45.3305C50.8025 45.1237 50.7443 44.8675 50.7858 44.6177V44.5646C50.8299 44.3155 50.9693 44.094 51.1739 43.9478C51.3785 43.8016 51.6319 43.7426 51.8793 43.7834L56.6257 44.6063C56.873 44.6499 57.0931 44.7904 57.2381 44.9971C57.3832 45.2039 57.4413 45.4601 57.3998 45.7099V45.763C57.3586 45.9829 57.2426 46.1814 57.0717 46.324C56.9008 46.4667 56.6859 46.5446 56.4641 46.5442ZM51.729 44.1361C51.594 44.1368 51.4635 44.1854 51.3604 44.2735C51.2573 44.3615 51.1883 44.4834 51.1653 44.6177V44.667C51.152 44.7418 51.1534 44.8184 51.1695 44.8926C51.1857 44.9668 51.2162 45.0371 51.2593 45.0993C51.349 45.2245 51.484 45.309 51.6351 45.3345L56.3777 46.1574C56.5271 46.1828 56.6804 46.1476 56.8042 46.0596C56.9281 45.9715 57.0125 45.8377 57.0391 45.6872V45.6341C57.0525 45.5593 57.0511 45.4826 57.0349 45.4084C57.0187 45.3341 56.988 45.2639 56.9447 45.2018C56.9013 45.1397 56.8461 45.0869 56.7823 45.0465C56.7185 45.0061 56.6474 44.979 56.5731 44.9666L51.8267 44.1474C51.7947 44.1396 51.7619 44.1358 51.729 44.1361Z" fill="#D1D3D4"/>
<path id="Vector_86" d="M58.3131 52.2444H75.6338C76.1049 52.2444 76.4868 51.859 76.4868 51.3835V50.6023C76.4868 50.1268 76.1049 49.7414 75.6338 49.7414H58.3131C57.842 49.7414 57.46 50.1268 57.46 50.6023V51.3835C57.46 51.859 57.842 52.2444 58.3131 52.2444Z" fill="white"/>
<path id="Vector_87" d="M75.6336 52.4301H58.3129C58.0369 52.4301 57.7721 52.3194 57.5769 52.1224C57.3816 51.9254 57.272 51.6582 57.272 51.3796V50.5984C57.272 50.3197 57.3816 50.0525 57.5769 49.8555C57.7721 49.6585 58.0369 49.5479 58.3129 49.5479H75.6336C75.9097 49.5479 76.1744 49.6585 76.3697 49.8555C76.5649 50.0525 76.6745 50.3197 76.6745 50.5984V51.3796C76.6745 51.6582 76.5649 51.9254 76.3697 52.1224C76.1744 52.3194 75.9097 52.4301 75.6336 52.4301ZM58.3129 49.9271C58.2256 49.9271 58.1391 49.9445 58.0584 49.9782C57.9777 50.0119 57.9044 50.0614 57.8426 50.1237C57.7808 50.186 57.7318 50.26 57.6984 50.3415C57.665 50.4229 57.6478 50.5102 57.6478 50.5984V51.3796C57.6478 51.4677 57.665 51.555 57.6984 51.6365C57.7318 51.7179 57.7808 51.7919 57.8426 51.8542C57.9044 51.9166 57.9777 51.966 58.0584 51.9998C58.1391 52.0335 58.2256 52.0508 58.3129 52.0508H75.6336C75.81 52.0508 75.9792 51.9801 76.1039 51.8542C76.2287 51.7284 76.2987 51.5576 76.2987 51.3796V50.5984C76.2987 50.4203 76.2287 50.2496 76.1039 50.1237C75.9792 49.9978 75.81 49.9271 75.6336 49.9271H58.3129Z" fill="#D1D3D4"/>
<path id="Vector_88" d="M72.9355 49.7263L71.639 47.8643H70.8611L71.639 49.7263H72.9355Z" fill="white"/>
<path id="Vector_89" d="M72.9351 49.9156H71.6386C71.6015 49.9155 71.5653 49.9042 71.5345 49.8833C71.5038 49.8623 71.4798 49.8327 71.4657 49.7981L70.6878 47.9398C70.673 47.9118 70.6653 47.8805 70.6653 47.8488C70.6653 47.817 70.673 47.7858 70.6878 47.7578C70.7052 47.7318 70.7288 47.7105 70.7563 47.696C70.7839 47.6814 70.8146 47.674 70.8457 47.6743H71.6236C71.6537 47.6745 71.6833 47.6818 71.71 47.6956C71.7368 47.7094 71.76 47.7294 71.7777 47.754L73.0742 49.616C73.0917 49.6459 73.1009 49.6799 73.1009 49.7146C73.1009 49.7493 73.0917 49.7834 73.0742 49.8133C73.0607 49.8403 73.0411 49.8636 73.0169 49.8815C72.9928 49.8993 72.9647 49.911 72.9351 49.9156ZM71.7626 49.5364H72.5706L71.5409 48.0536H71.1426L71.7626 49.5364Z" fill="#D1D3D4"/>
<path id="Vector_90" d="M60.812 49.7414L61.8793 48.2092H62.5219L61.8793 49.7414H60.812Z" fill="white"/>
<path id="Vector_91" d="M61.8795 49.9309H60.8122C60.7781 49.9306 60.7446 49.9209 60.7155 49.9029C60.6863 49.8848 60.6626 49.8591 60.6469 49.8285C60.6294 49.7986 60.6201 49.7646 60.6201 49.7299C60.6201 49.6952 60.6294 49.6611 60.6469 49.6313L61.7142 48.1143C61.7319 48.0898 61.755 48.0698 61.7818 48.0559C61.8086 48.0421 61.8382 48.0348 61.8682 48.0347H62.5071C62.5382 48.0343 62.5689 48.0418 62.5964 48.0563C62.624 48.0709 62.6475 48.0921 62.6649 48.1181C62.6818 48.1442 62.6923 48.174 62.6956 48.205C62.6988 48.2359 62.6948 48.2673 62.6837 48.2964L62.0411 49.8133C62.0278 49.8462 62.0056 49.8747 61.977 49.8955C61.9485 49.9163 61.9147 49.9285 61.8795 49.9309ZM61.173 49.5516H61.7555L62.2365 48.4139H61.9772L61.173 49.5516Z" fill="#D1D3D4"/>
<path id="Vector_92" d="M67.2605 49.7415H66.4826V48.2093H67.2605V49.7415Z" fill="white"/>
<path id="Vector_93" d="M67.2609 49.9309H66.4867C66.4369 49.9309 66.3891 49.9109 66.3539 49.8753C66.3186 49.8398 66.2988 49.7915 66.2988 49.7413V48.2243C66.2988 48.174 66.3186 48.1258 66.3539 48.0902C66.3891 48.0546 66.4369 48.0347 66.4867 48.0347H67.2609C67.3107 48.0347 67.3585 48.0546 67.3938 48.0902C67.429 48.1258 67.4488 48.174 67.4488 48.2243V49.7413C67.4488 49.7915 67.429 49.8398 67.3938 49.8753C67.3585 49.9109 67.3107 49.9309 67.2609 49.9309ZM66.6746 49.5516H67.073V48.4139H66.6746V49.5516Z" fill="#D1D3D4"/>
<path id="Vector_94" d="M72.9541 48.2092H60.8232C60.6629 48.2092 60.504 48.1773 60.3559 48.1154C60.2077 48.0535 60.073 47.9627 59.9596 47.8482C59.8462 47.7338 59.7562 47.5979 59.6949 47.4484C59.6335 47.2988 59.6019 47.1386 59.6019 46.9767V44.8795H74.1604V46.9767C74.1604 47.1386 74.1288 47.2988 74.0674 47.4484C74.0061 47.5979 73.9161 47.7338 73.8027 47.8482C73.6893 47.9627 73.5546 48.0535 73.4064 48.1154C73.2583 48.1773 73.0994 48.2092 72.939 48.2092H72.9541Z" fill="white"/>
<path id="Vector_95" d="M72.9392 48.3988H60.7933C60.4195 48.3988 60.0611 48.249 59.7968 47.9823C59.5325 47.7156 59.384 47.3538 59.384 46.9767V44.8757C59.384 44.8254 59.4038 44.7771 59.4391 44.7416C59.4743 44.706 59.5221 44.686 59.5719 44.686H74.1455C74.1953 44.686 74.2431 44.706 74.2783 44.7416C74.3136 44.7771 74.3334 44.8254 74.3334 44.8757V46.9767C74.3334 47.3512 74.187 47.7107 73.9259 47.9769C73.6649 48.2432 73.3103 48.3948 72.9392 48.3988ZM59.7861 45.0653V46.9615C59.7861 47.2381 59.895 47.5033 60.0888 47.6989C60.2826 47.8945 60.5455 48.0044 60.8196 48.0044H72.9504C73.2245 48.0044 73.4874 47.8945 73.6812 47.6989C73.875 47.5033 73.9839 47.2381 73.9839 46.9615V45.0653H59.7861Z" fill="#D1D3D4"/>
<path id="Vector_96" d="M6.72681 43.791H21.4431V50.4657C21.4431 50.9374 21.2575 51.3898 20.9269 51.7234C20.5964 52.0569 20.1481 52.2443 19.6806 52.2443H8.48931C8.02187 52.2443 7.57357 52.0569 7.24303 51.7234C6.9125 51.3898 6.72681 50.9374 6.72681 50.4657V43.791Z" fill="white"/>
<path id="Vector_97" d="M19.6806 52.4302H8.48922C7.97225 52.4292 7.47673 52.2215 7.11118 51.8526C6.74562 51.4837 6.53981 50.9836 6.53882 50.4619V43.7873C6.53882 43.737 6.55861 43.6888 6.59385 43.6532C6.62909 43.6176 6.67688 43.5977 6.72672 43.5977H21.4431C21.4929 43.5977 21.5407 43.6176 21.5759 43.6532C21.6112 43.6888 21.631 43.737 21.631 43.7873V50.4619C21.631 50.9839 21.4255 51.4846 21.0597 51.8537C20.6939 52.2228 20.1978 52.4302 19.6806 52.4302ZM6.90335 43.9769V50.4619C6.90434 50.883 7.07055 51.2866 7.36563 51.5844C7.66071 51.8822 8.06064 52.0499 8.47795 52.0509H19.6806C20.0982 52.0509 20.4987 51.8835 20.794 51.5855C21.0893 51.2875 21.2552 50.8834 21.2552 50.4619V43.9769H6.90335Z" fill="#D1D3D4"/>
<path id="Vector_98" d="M14.085 40.8521C9.57538 40.8521 6.72681 42.168 6.72681 43.7912H21.4431C21.4431 42.168 18.5908 40.8521 14.085 40.8521Z" fill="white"/>
<path id="Vector_99" d="M21.4431 43.9805H6.72672C6.67688 43.9805 6.62909 43.9605 6.59385 43.9249C6.55861 43.8894 6.53882 43.8411 6.53882 43.7909C6.53882 41.9477 9.64293 40.6621 14.0849 40.6621C18.5269 40.6621 21.631 41.9477 21.631 43.7909C21.631 43.8411 21.6112 43.8894 21.5759 43.9249C21.5407 43.9605 21.4929 43.9805 21.4431 43.9805ZM6.92965 43.6012H21.2401C21.0259 42.3004 18.5757 41.0414 14.0999 41.0414C9.62414 41.0414 7.14762 42.3004 6.92965 43.6012Z" fill="#D1D3D4"/>
<path id="Vector_100" d="M5.50908 44.428H6.72667V45.0879H5.50908C5.42236 45.0879 5.33921 45.0531 5.27789 44.9912C5.21658 44.9293 5.18213 44.8454 5.18213 44.7579C5.18213 44.6704 5.21658 44.5865 5.27789 44.5246C5.33921 44.4627 5.42236 44.428 5.50908 44.428Z" fill="white"/>
<path id="Vector_101" d="M6.72682 45.2776H5.50923C5.37269 45.2776 5.24173 45.2229 5.14518 45.1255C5.04863 45.028 4.99438 44.8959 4.99438 44.7581C4.99438 44.6203 5.04863 44.4881 5.14518 44.3907C5.24173 44.2933 5.37269 44.2385 5.50923 44.2385H6.72682C6.77666 44.2385 6.82445 44.2585 6.85969 44.2941C6.89493 44.3296 6.91472 44.3779 6.91472 44.4281V45.088C6.91472 45.1383 6.89493 45.1866 6.85969 45.2221C6.82445 45.2577 6.77666 45.2776 6.72682 45.2776ZM5.50923 44.6178C5.49066 44.6173 5.47217 44.6205 5.45487 44.6273C5.43756 44.6342 5.42179 44.6444 5.40847 44.6575C5.39516 44.6706 5.38458 44.6862 5.37736 44.7035C5.37014 44.7208 5.36642 44.7393 5.36643 44.7581C5.36741 44.7956 5.38288 44.8313 5.40956 44.8575C5.43623 44.8838 5.472 44.8984 5.50923 44.8984H6.53892V44.6178H5.50923Z" fill="#D1D3D4"/>
<path id="Vector_102" d="M21.4431 44.428H22.6607C22.7474 44.428 22.8306 44.4627 22.8919 44.5246C22.9532 44.5865 22.9877 44.6704 22.9877 44.7579C22.9877 44.8454 22.9532 44.9293 22.8919 44.9912C22.8306 45.0531 22.7474 45.0879 22.6607 45.0879H21.4431V44.428Z" fill="white"/>
<path id="Vector_103" d="M22.6646 45.2776H21.4433C21.3934 45.2776 21.3456 45.2577 21.3104 45.2221C21.2752 45.1866 21.2554 45.1383 21.2554 45.088V44.4281C21.2554 44.3779 21.2752 44.3296 21.3104 44.2941C21.3456 44.2585 21.3934 44.2385 21.4433 44.2385H22.6646C22.8012 44.2385 22.9321 44.2933 23.0287 44.3907C23.1252 44.4881 23.1795 44.6203 23.1795 44.7581C23.1795 44.8959 23.1252 45.028 23.0287 45.1255C22.9321 45.2229 22.8012 45.2776 22.6646 45.2776ZM21.6312 44.8984H22.6646C22.7015 44.8984 22.7369 44.8836 22.7629 44.8573C22.789 44.831 22.8037 44.7953 22.8037 44.7581C22.8042 44.7395 22.8009 44.721 22.7941 44.7038C22.7873 44.6865 22.7771 44.6708 22.7641 44.6577C22.7511 44.6446 22.7355 44.6343 22.7184 44.6274C22.7013 44.6205 22.683 44.6172 22.6646 44.6178H21.6312V44.8984Z" fill="#D1D3D4"/>
<path id="Vector_104" d="M16.1254 41.7771H12.048C11.9982 41.7771 11.9504 41.7572 11.9151 41.7216C11.8799 41.686 11.8601 41.6378 11.8601 41.5875V40.9466C11.8611 40.5054 12.0352 40.0825 12.3444 39.7705C12.6536 39.4585 13.0726 39.2827 13.5099 39.2817H14.6636C15.1008 39.2827 15.5199 39.4585 15.829 39.7705C16.1382 40.0825 16.3124 40.5054 16.3133 40.9466V41.5875C16.3133 41.6378 16.2936 41.686 16.2583 41.7216C16.2231 41.7572 16.1753 41.7771 16.1254 41.7771ZM12.2359 41.3979H15.9375V40.9466C15.9375 40.6056 15.8033 40.2786 15.5644 40.0375C15.3255 39.7964 15.0015 39.661 14.6636 39.661H13.5099C13.172 39.661 12.848 39.7964 12.609 40.0375C12.3701 40.2786 12.2359 40.6056 12.2359 40.9466V41.3979Z" fill="#D1D3D4"/>
</g>
</svg>
