<svg width="108" height="110" viewBox="0 0 108 110" fill="none" xmlns="http://www.w3.org/2000/svg">
<g id="&#240;&#159;&#166;&#134; illustration &#34;Startup&#34;">
<g id="Group">
<path id="Vector" d="M100.92 52.0116C100.762 52.0116 100.611 51.95 100.499 51.8405C100.388 51.7309 100.325 51.5822 100.325 51.4273V49.0899C100.325 48.935 100.388 48.7863 100.499 48.6768C100.611 48.5672 100.762 48.5056 100.92 48.5056C101.078 48.5056 101.229 48.5672 101.341 48.6768C101.452 48.7863 101.515 48.935 101.515 49.0899V51.4273C101.515 51.5822 101.452 51.7309 101.341 51.8405C101.229 51.95 101.078 52.0116 100.92 52.0116Z" fill="#DFEAEF"/>
<path id="Vector_2" d="M100.92 57.3291C100.762 57.3291 100.611 57.2675 100.499 57.158C100.388 57.0484 100.325 56.8997 100.325 56.7448V54.4075C100.325 54.2525 100.388 54.1038 100.499 53.9943C100.611 53.8847 100.762 53.8231 100.92 53.8231C101.078 53.8231 101.229 53.8847 101.341 53.9943C101.452 54.1038 101.515 54.2525 101.515 54.4075V56.7448C101.515 56.8997 101.452 57.0484 101.341 57.158C101.229 57.2675 101.078 57.3291 100.92 57.3291Z" fill="#DFEAEF"/>
<path id="Vector_3" d="M104.828 53.4898H102.449C102.291 53.4898 102.14 53.4283 102.028 53.3187C101.917 53.2091 101.854 53.0605 101.854 52.9055C101.854 52.7505 101.917 52.6019 102.028 52.4923C102.14 52.3827 102.291 52.3212 102.449 52.3212H104.828C104.986 52.3212 105.137 52.3827 105.249 52.4923C105.36 52.6019 105.423 52.7505 105.423 52.9055C105.423 53.0605 105.36 53.2091 105.249 53.3187C105.137 53.4283 104.986 53.4898 104.828 53.4898Z" fill="#DFEAEF"/>
<path id="Vector_4" d="M99.4152 53.4898H97.036C96.8782 53.4898 96.7269 53.4283 96.6154 53.3187C96.5038 53.2091 96.4412 53.0605 96.4412 52.9055C96.4412 52.7505 96.5038 52.6019 96.6154 52.4923C96.7269 52.3827 96.8782 52.3212 97.036 52.3212H99.4152C99.5729 52.3212 99.7242 52.3827 99.8358 52.4923C99.9473 52.6019 100.01 52.7505 100.01 52.9055C100.01 53.0605 99.9473 53.2091 99.8358 53.3187C99.7242 53.4283 99.5729 53.4898 99.4152 53.4898Z" fill="#DFEAEF"/>
<path id="Vector_5" d="M71.0968 5.94885C70.939 5.94885 70.7877 5.88729 70.6762 5.77771C70.5646 5.66812 70.502 5.5195 70.502 5.36452V3.0272C70.502 2.87223 70.5646 2.7236 70.6762 2.61402C70.7877 2.50443 70.939 2.44287 71.0968 2.44287C71.2545 2.44287 71.4058 2.50443 71.5173 2.61402C71.6289 2.7236 71.6916 2.87223 71.6916 3.0272V5.36452C71.6916 5.5195 71.6289 5.66812 71.5173 5.77771C71.4058 5.88729 71.2545 5.94885 71.0968 5.94885Z" fill="#DFEAEF"/>
<path id="Vector_6" d="M71.0968 11.2721C70.939 11.2721 70.7877 11.2106 70.6762 11.101C70.5646 10.9914 70.502 10.8428 70.502 10.6878V8.32127C70.502 8.16629 70.5646 8.01767 70.6762 7.90808C70.7877 7.7985 70.939 7.73694 71.0968 7.73694C71.2545 7.73694 71.4058 7.7985 71.5173 7.90808C71.6289 8.01767 71.6916 8.16629 71.6916 8.32127V10.6878C71.6916 10.8428 71.6289 10.9914 71.5173 11.101C71.4058 11.2106 71.2545 11.2721 71.0968 11.2721Z" fill="#DFEAEF"/>
<path id="Vector_7" d="M75.0048 7.45052H72.6256C72.4678 7.45052 72.3165 7.38896 72.205 7.27937C72.0934 7.16979 72.0308 7.02116 72.0308 6.86619C72.0308 6.71122 72.0934 6.56259 72.205 6.45301C72.3165 6.34342 72.4678 6.28186 72.6256 6.28186H75.0048C75.1625 6.28186 75.3138 6.34342 75.4253 6.45301C75.5369 6.56259 75.5996 6.71122 75.5996 6.86619C75.5996 7.02116 75.5369 7.16979 75.4253 7.27937C75.3138 7.38896 75.1625 7.45052 75.0048 7.45052Z" fill="#DFEAEF"/>
<path id="Vector_8" d="M69.5919 7.45052H67.2127C67.055 7.45052 66.9037 7.38896 66.7921 7.27937C66.6806 7.16979 66.6179 7.02116 66.6179 6.86619C66.6179 6.71122 66.6806 6.56259 66.7921 6.45301C66.9037 6.34342 67.055 6.28186 67.2127 6.28186H69.5919C69.7497 6.28186 69.901 6.34342 70.0125 6.45301C70.1241 6.56259 70.1867 6.71122 70.1867 6.86619C70.1867 7.02116 70.1241 7.16979 70.0125 7.27937C69.901 7.38896 69.7497 7.45052 69.5919 7.45052Z" fill="#DFEAEF"/>
<path id="Vector_9" d="M104.941 35.224C104.783 35.224 104.632 35.1624 104.52 35.0528C104.409 34.9432 104.346 34.7946 104.346 34.6396V30.2922C104.346 30.1372 104.409 29.9886 104.52 29.879C104.632 29.7695 104.783 29.7079 104.941 29.7079C105.099 29.7079 105.25 29.7695 105.362 29.879C105.473 29.9886 105.536 30.1372 105.536 30.2922V34.6396C105.536 34.7946 105.473 34.9432 105.362 35.0528C105.25 35.1624 105.099 35.224 104.941 35.224Z" fill="#DFEAEF"/>
<path id="Vector_10" d="M107.148 33.05H102.746C102.588 33.05 102.437 32.9884 102.326 32.8789C102.214 32.7693 102.151 32.6207 102.151 32.4657C102.151 32.3107 102.214 32.1621 102.326 32.0525C102.437 31.9429 102.588 31.8813 102.746 31.8813H107.166C107.323 31.8813 107.475 31.9429 107.586 32.0525C107.698 32.1621 107.76 32.3107 107.76 32.4657C107.76 32.6207 107.698 32.7693 107.586 32.8789C107.475 32.9884 107.323 33.05 107.166 33.05H107.148Z" fill="#DFEAEF"/>
</g>
<path id="Vector_11" d="M53.3646 107.009L88.723 85.1689C91.1785 83.6521 91.9176 80.4669 90.3736 78.0545L47.0464 10.3585C45.5025 7.9461 42.2602 7.22009 39.8046 8.73689L4.44624 30.5774C1.99065 32.0942 1.25165 35.2795 2.79562 37.6918L46.1228 105.388C47.6667 107.8 50.909 108.526 53.3646 107.009Z" fill="#093F68"/>
<path id="Vector_12" d="M50.5821 108.394C49.5917 108.396 48.6169 108.151 47.7493 107.682C46.8816 107.213 46.1494 106.535 45.6215 105.712L2.2903 38.017C1.88017 37.3793 1.60219 36.6684 1.47229 35.9249C1.34239 35.1815 1.36313 34.4202 1.53332 33.6846C1.70352 32.9491 2.01981 32.2537 2.46408 31.6385C2.90835 31.0233 3.47185 30.5002 4.12229 30.0994L39.4831 8.25125C40.7962 7.44272 42.382 7.17875 43.8929 7.51723C45.4037 7.85571 46.7163 8.769 47.5427 10.0568L90.8798 77.7515C91.7066 79.0381 91.9799 80.5945 91.6398 82.0789C91.2996 83.5634 90.3739 84.8546 89.0657 85.6692L53.7048 107.517C52.7701 108.096 51.6867 108.4 50.5821 108.394ZM42.588 8.54341C41.7139 8.54096 40.8574 8.78427 40.1196 9.24461L4.75872 31.0869C4.24091 31.4062 3.79226 31.8226 3.43842 32.3124C3.08459 32.8022 2.83251 33.3558 2.69661 33.9413C2.56071 34.5269 2.54366 35.1331 2.64643 35.7251C2.74919 36.3172 2.96976 36.8835 3.29551 37.3918L46.6267 105.086C47.2853 106.113 48.3316 106.841 49.536 107.11C50.7403 107.38 52.0043 107.169 53.0505 106.524L88.4114 84.6816C88.9287 84.3619 89.3768 83.945 89.73 83.455C90.0833 82.965 90.3348 82.4114 90.4701 81.8259C90.6055 81.2403 90.622 80.6343 90.5188 80.0425C90.4156 79.4507 90.1947 78.8846 89.8686 78.3767L46.5375 10.6762C46.1175 10.0207 45.5346 9.4809 44.8436 9.10777C44.1527 8.73464 43.3764 8.54043 42.588 8.54341Z" fill="#093F68"/>
<path id="Vector_13" d="M58.4995 103.151L94.0013 81.404C96.4669 79.8938 97.2193 76.7059 95.682 74.2837L52.5408 6.31301C51.0035 3.89086 47.7585 3.15164 45.293 4.66192L9.79115 26.4087C7.3256 27.919 6.57314 31.1069 8.11048 33.529L51.2516 101.5C52.789 103.922 56.0339 104.661 58.4995 103.151Z" fill="#68E1FD"/>
<path id="Vector_14" d="M56.0899 104.993C55.0991 104.994 54.1242 104.748 53.2565 104.278C52.3889 103.808 51.657 103.129 51.1293 102.305L7.79814 34.6101C7.38827 33.9721 7.11065 33.2608 6.9812 32.5171C6.85174 31.7735 6.873 31.012 7.04376 30.2764C7.21451 29.5408 7.5314 28.8456 7.97624 28.2306C8.42109 27.6155 8.98515 27.0928 9.63607 26.6924L44.991 4.85019C46.3045 4.03981 47.8918 3.77479 49.404 4.11334C50.9163 4.45189 52.23 5.36632 53.0565 6.65577L96.3876 74.3504C97.2047 75.638 97.47 77.1908 97.1257 78.6699C96.7813 80.149 95.8553 81.4341 94.5497 82.2447L59.1888 104.087C58.2639 104.671 57.1893 104.985 56.0899 104.993ZM48.0958 5.11313C47.2222 5.11358 46.3665 5.35666 45.6274 5.81433L10.2666 27.6624C9.74814 27.9812 9.29891 28.3974 8.94462 28.8872C8.59034 29.3769 8.33798 29.9306 8.20204 30.5164C8.06609 31.1022 8.04923 31.7085 8.15242 32.3008C8.25561 32.893 8.47681 33.4593 8.80335 33.9674L52.1405 101.662C52.798 102.688 53.8432 103.416 55.0466 103.685C56.25 103.955 57.5131 103.744 58.5584 103.099L93.9192 81.2514C94.9637 80.6054 95.7046 79.5786 95.9789 78.3964C96.2533 77.2142 96.0387 75.9733 95.3824 74.9464L52.0453 7.27515C51.722 6.76604 51.2989 6.32512 50.8006 5.97804C50.3023 5.63096 49.7387 5.38463 49.1427 5.25337C48.8006 5.16627 48.4492 5.1192 48.0958 5.11313Z" fill="#093F68"/>
<path id="Vector_15" d="M53.1104 93.5415L87.4969 72.3012C88.7817 71.5076 89.1684 69.8411 88.3605 68.5789L54.0091 14.9068C53.2012 13.6446 51.5048 13.2647 50.22 14.0584L15.8335 35.2986C14.5487 36.0922 14.162 37.7588 14.9699 39.021L49.3213 92.6931C50.1292 93.9552 51.8256 94.3351 53.1104 93.5415Z" fill="white"/>
<path id="Vector_16" d="M51.6529 94.5508C51.0876 94.5521 50.5313 94.4123 50.036 94.1445C49.5408 93.8767 49.1229 93.4897 48.8217 93.0198L14.4601 39.3433C14.2266 38.9785 14.0686 38.572 13.9951 38.1472C13.9217 37.7224 13.9342 37.2875 14.032 36.8675C14.1298 36.4474 14.3109 36.0504 14.565 35.6992C14.8191 35.3479 15.1412 35.0494 15.5129 34.8205L49.9042 13.5743C50.6538 13.1121 51.5595 12.9607 52.4225 13.1535C53.2855 13.3463 54.0355 13.8675 54.5079 14.6027L88.8695 68.2793C89.3379 69.0168 89.4901 69.9065 89.2928 70.754C89.0956 71.6014 88.5649 72.3377 87.8167 72.802L53.4254 94.0541C52.8942 94.3807 52.2796 94.5529 51.6529 94.5508ZM51.6767 14.2346C51.2722 14.2355 50.8763 14.349 50.5347 14.5618L16.1433 35.8081C15.9031 35.9557 15.6949 36.1487 15.5309 36.3758C15.3669 36.603 15.2503 36.8597 15.1878 37.1313C15.1253 37.403 15.1182 37.684 15.1668 37.9584C15.2155 38.2327 15.3189 38.4949 15.4712 38.7297L49.809 92.4004C50.1148 92.8748 50.5996 93.2107 51.1571 93.3344C51.7146 93.4582 52.2993 93.3598 52.783 93.0607L87.1744 71.8145C87.4147 71.6668 87.6228 71.4738 87.7868 71.2467C87.9508 71.0196 88.0674 70.7628 88.1299 70.4912C88.1924 70.2196 88.1995 69.9385 88.1509 69.6642C88.1022 69.3898 87.9988 69.1277 87.8465 68.8928L53.5027 15.2279C53.3528 14.9924 53.1568 14.7885 52.9261 14.628C52.6953 14.4675 52.4344 14.3537 52.1585 14.293C52.0011 14.2535 51.8392 14.2338 51.6767 14.2346Z" fill="#093F68"/>
<path id="Vector_17" d="M37.6749 17.3781C38.1414 17.3781 38.5196 17.0066 38.5196 16.5484C38.5196 16.0901 38.1414 15.7186 37.6749 15.7186C37.2085 15.7186 36.8303 16.0901 36.8303 16.5484C36.8303 17.0066 37.2085 17.3781 37.6749 17.3781Z" fill="#093F68"/>
<path id="Vector_18" d="M34.2551 18.6581L22.823 25.7226L34.2551 18.6581Z" fill="white"/>
<path id="Vector_19" d="M22.8228 26.3067C22.6933 26.3071 22.5672 26.266 22.4636 26.1896C22.3601 26.1132 22.2847 26.0056 22.2491 25.8833C22.2134 25.761 22.2194 25.6306 22.266 25.5119C22.3127 25.3932 22.3975 25.2927 22.5075 25.2257L33.9396 18.1612C34.006 18.1205 34.0799 18.0931 34.1571 18.0804C34.2343 18.0678 34.3132 18.0703 34.3894 18.0876C34.4657 18.105 34.5376 18.1369 34.6013 18.1816C34.665 18.2263 34.719 18.2829 34.7604 18.3481C34.8018 18.4134 34.8297 18.486 34.8426 18.5618C34.8554 18.6376 34.8529 18.7152 34.8353 18.7901C34.8176 18.8649 34.7851 18.9357 34.7396 18.9982C34.6941 19.0607 34.6365 19.1138 34.5701 19.1545L23.138 26.2191C23.0434 26.2767 22.9342 26.3071 22.8228 26.3067Z" fill="#093F68"/>
<path id="Vector_20" d="M73.2617 91.0388C75.2262 91.0388 76.8186 89.4743 76.8186 87.5445C76.8186 85.6146 75.2262 84.0502 73.2617 84.0502C71.2973 84.0502 69.7048 85.6146 69.7048 87.5445C69.7048 89.4743 71.2973 91.0388 73.2617 91.0388Z" fill="#093F68"/>
<path id="Vector_21" d="M22.7575 61.4426L19.9797 63.1606L22.7575 61.4426Z" fill="#68E1FD"/>
<path id="Vector_22" d="M19.9797 63.7449C19.852 63.7433 19.7281 63.7014 19.6265 63.6253C19.5249 63.5492 19.4509 63.443 19.4156 63.3224C19.3802 63.2017 19.3853 63.0731 19.4301 62.9556C19.475 62.8381 19.5571 62.7378 19.6645 62.6697L22.4422 60.9518C22.5081 60.9044 22.5833 60.8709 22.663 60.8533C22.7427 60.8357 22.8252 60.8345 22.9054 60.8496C22.9856 60.8647 23.0618 60.8959 23.1292 60.9412C23.1966 60.9865 23.2538 61.045 23.2972 61.113C23.3406 61.1809 23.3693 61.257 23.3815 61.3363C23.3937 61.4157 23.3891 61.4966 23.368 61.5741C23.3469 61.6517 23.3098 61.7241 23.259 61.7869C23.2082 61.8498 23.1448 61.9016 23.0727 61.9393L20.295 63.6573C20.2003 63.7149 20.0911 63.7452 19.9797 63.7449Z" fill="#093F68"/>
<path id="Vector_23" d="M84.0397 69.974C83.9402 69.9739 83.8423 69.9492 83.755 69.9022C83.6677 69.8552 83.5938 69.7875 83.5401 69.7052L74.4277 55.5411C74.3433 55.4101 74.3153 55.2516 74.3499 55.1004C74.3845 54.9491 74.4788 54.8176 74.6121 54.7347C74.7454 54.6518 74.9068 54.6243 75.0607 54.6583C75.2146 54.6922 75.3485 54.7849 75.4329 54.9158L84.5453 69.0683C84.5871 69.1331 84.6155 69.2054 84.6288 69.2811C84.6422 69.3567 84.6402 69.4341 84.6231 69.509C84.606 69.5839 84.574 69.6547 84.529 69.7175C84.484 69.7802 84.4269 69.8336 84.3609 69.8747C84.2647 69.9353 84.1538 69.9696 84.0397 69.974Z" fill="#DFEAEF"/>
<path id="Vector_24" d="M27.0102 48.8854C26.9107 48.8852 26.8128 48.8605 26.7255 48.8136C26.6382 48.7666 26.5643 48.6989 26.5106 48.6166L24.6846 45.8293C24.6414 45.7645 24.6118 45.6918 24.5975 45.6155C24.5832 45.5393 24.5845 45.461 24.6013 45.3853C24.618 45.31 24.6498 45.2387 24.6947 45.1755C24.7396 45.1123 24.7968 45.0585 24.863 45.0171L55.3762 26.079C55.5083 25.9974 55.6678 25.97 55.8202 26.0028C55.9726 26.0356 56.1058 26.1259 56.1911 26.2543L63.7808 37.4501C63.8294 37.5136 63.8643 37.5861 63.8834 37.6634C63.9025 37.7406 63.9053 37.8208 63.8918 37.8992C63.8783 37.9775 63.8486 38.0523 63.8046 38.119C63.7606 38.1857 63.7033 38.2429 63.636 38.287C63.5688 38.3312 63.4931 38.3614 63.4135 38.3759C63.334 38.3903 63.2523 38.3887 63.1734 38.3711C63.0946 38.3534 63.0202 38.3202 62.9548 38.2733C62.8895 38.2265 62.8346 38.1671 62.7934 38.0987L55.5249 27.3762L26.0169 45.6891L27.5158 47.9855C27.6008 48.1158 27.6297 48.2738 27.5962 48.425C27.5628 48.5761 27.4697 48.7081 27.3374 48.7919C27.2399 48.8537 27.1262 48.8862 27.0102 48.8854Z" fill="#DFEAEF"/>
<path id="Vector_25" d="M41.7554 63.4937C41.6739 63.4935 41.5932 63.4767 41.5185 63.4446C41.4438 63.4124 41.3767 63.3655 41.3212 63.3067C41.2143 63.1934 41.1574 63.0432 41.163 62.8888C41.1685 62.7344 41.2361 62.5884 41.351 62.4828L64.8634 40.8626C64.9786 40.7565 65.1319 40.6996 65.2898 40.7045C65.4476 40.7095 65.597 40.7758 65.705 40.8889C65.8131 41.002 65.871 41.1527 65.866 41.3078C65.861 41.4628 65.7934 41.6096 65.6783 41.7157L42.1599 63.336C42.0502 63.4368 41.9057 63.4932 41.7554 63.4937Z" fill="#093F68"/>
<path id="Vector_26" d="M61.4612 73.8421C61.359 73.8418 61.2586 73.8156 61.1697 73.7661C61.1013 73.7289 61.0411 73.6788 60.9924 73.6188C60.9438 73.5587 60.9076 73.4898 60.8861 73.416C60.8645 73.3422 60.858 73.2649 60.8669 73.1886C60.8757 73.1124 60.8998 73.0386 60.9377 72.9714L74.7906 48.7801C74.8695 48.6453 74.9997 48.5468 75.1525 48.5062C75.3053 48.4657 75.4683 48.4865 75.6055 48.5639C75.7427 48.6414 75.843 48.7693 75.8843 48.9194C75.9256 49.0696 75.9045 49.2296 75.8256 49.3645L61.9667 73.5557C61.9146 73.6421 61.8407 73.7138 61.7521 73.764C61.6636 73.8142 61.5634 73.841 61.4612 73.8421Z" fill="#093F68"/>
<path id="Vector_27" d="M51.9206 54.1443C51.8217 54.1447 51.7241 54.1209 51.6369 54.075C51.5496 54.0291 51.4754 53.9625 51.421 53.8813C50.8198 52.8957 50.0099 52.0485 49.0463 51.3972C48.0827 50.7459 46.9878 50.3058 45.8358 50.1065C42.6834 49.5806 38.728 50.837 35.2543 53.4664C35.1715 53.5307 35.0727 53.5721 34.9682 53.5865C34.8637 53.6009 34.7572 53.5877 34.6595 53.5482C34.5637 53.5111 34.4792 53.4501 34.4146 53.3712C34.3499 53.2923 34.3073 53.1983 34.2908 53.0983C34.0773 52.0373 33.5614 51.0578 32.8033 50.2736C32.0451 49.4895 31.0758 48.933 30.0082 48.6691C28.9095 48.4205 27.7684 48.4143 26.6669 48.6507C25.5654 48.8871 24.531 49.3604 23.6379 50.0364C23.5747 50.0819 23.503 50.1146 23.4269 50.1327C23.3507 50.1508 23.2717 50.154 23.1944 50.1421C23.117 50.1301 23.0428 50.1033 22.976 50.0631C22.9092 50.0229 22.8512 49.9702 22.8052 49.9079C22.713 49.7836 22.6745 49.6286 22.6978 49.4766C22.7212 49.3245 22.8047 49.1877 22.9301 49.0957C23.9676 48.3177 25.1672 47.7744 26.4432 47.5047C27.7193 47.235 29.0402 47.2455 30.3116 47.5355C31.4449 47.8282 32.488 48.3892 33.3497 49.1695C34.2114 49.9497 34.8653 50.9255 35.2543 52.0115C38.8231 49.5164 42.731 48.4003 46.0262 48.9496C47.3418 49.1748 48.5928 49.6747 49.6949 50.4156C50.7969 51.1565 51.7243 52.1212 52.4143 53.2444C52.4719 53.3326 52.5043 53.4344 52.5081 53.5392C52.5119 53.6439 52.4869 53.7477 52.4359 53.8397C52.3848 53.9318 52.3094 54.0086 52.2177 54.0621C52.126 54.1157 52.0214 54.1441 51.9147 54.1443H51.9206Z" fill="#093F68"/>
<path id="Vector_28" d="M44.4557 65.6615C44.314 65.6615 44.1768 65.6118 44.0691 65.5213C38.6029 60.9986 30.4898 63.5696 30.3887 63.593C30.2396 63.6412 30.0772 63.6295 29.9368 63.5606C29.7964 63.4916 29.6895 63.371 29.6393 63.2249C29.6141 63.152 29.6038 63.0749 29.609 62.9981C29.6142 62.9213 29.6348 62.8463 29.6696 62.7773C29.7044 62.7083 29.7528 62.6468 29.8119 62.5963C29.871 62.5457 29.9397 62.5072 30.014 62.4828C30.3709 62.3717 38.8349 59.6838 44.8185 64.6273C44.9129 64.704 44.9807 64.8075 45.0129 64.9236C45.0451 65.0397 45.04 65.1627 44.9984 65.2759C44.9567 65.389 44.8806 65.4868 44.7802 65.5558C44.6799 65.6248 44.5604 65.6618 44.4379 65.6615H44.4557Z" fill="#093F68"/>
<path id="Vector_29" d="M79.8225 76.2845C79.6717 76.2849 79.5264 76.229 79.416 76.1281C79.3056 76.0272 79.2383 75.8889 79.2277 75.7411C79.2143 75.3765 79.1225 75.0189 78.9585 74.6916C78.7945 74.3643 78.5619 74.0748 78.276 73.842C77.2887 73.0415 75.5221 72.7201 73.4225 72.9597C73.3248 72.9705 73.2259 72.9573 73.1347 72.9214C73.0434 72.8855 72.9626 72.8279 72.8996 72.7538C72.8365 72.6797 72.7932 72.5914 72.7734 72.4968C72.7535 72.4022 72.7579 72.3043 72.786 72.2117C73.071 71.2853 73.1422 70.3081 72.9942 69.3513C72.8463 68.3945 72.4831 67.4821 71.931 66.6806C71.3789 65.8791 70.6519 65.2086 69.8027 64.7179C68.9536 64.2272 68.0038 63.9287 67.0224 63.8441C66.8647 63.8302 66.719 63.7552 66.6175 63.6358C66.516 63.5163 66.467 63.3622 66.4812 63.2072C66.4954 63.0522 66.5716 62.9091 66.6932 62.8094C66.8148 62.7097 66.9717 62.6615 67.1295 62.6755C68.2152 62.7681 69.269 63.083 70.2233 63.6001C71.1775 64.1171 72.0109 64.8247 72.6698 65.6774C73.3288 66.5301 73.7986 67.5089 74.0492 68.5508C74.2997 69.5926 74.3253 70.6745 74.1243 71.7267C75.5995 71.6508 77.6396 71.8027 79.0314 72.9363C79.4426 73.2692 79.7783 73.6829 80.017 74.1508C80.2557 74.6188 80.3921 75.1306 80.4173 75.6534C80.423 75.7302 80.4132 75.8073 80.3884 75.8804C80.3636 75.9534 80.3244 76.0209 80.273 76.079C80.2216 76.1371 80.159 76.1846 80.0889 76.2189C80.0187 76.2532 79.9423 76.2735 79.8642 76.2787L79.8225 76.2845Z" fill="#093F68"/>
<path id="Vector_30" d="M73.9043 76.8688C73.759 76.87 73.6184 76.819 73.5088 76.7254C73.3993 76.6317 73.3283 76.5019 73.3095 76.3605C73.1278 75.1454 72.576 74.0128 71.7267 73.1117C70.8774 72.2106 69.7703 71.5831 68.5511 71.3118C68.4744 71.2959 68.4018 71.2652 68.3372 71.2216C68.2727 71.178 68.2176 71.1223 68.175 71.0577C68.1325 70.993 68.1033 70.9208 68.0892 70.8451C68.0752 70.7694 68.0765 70.6917 68.0931 70.6165C68.1093 70.5412 68.1405 70.4698 68.1849 70.4064C68.2293 70.343 68.2861 70.2889 68.3518 70.2471C68.4176 70.2053 68.4911 70.1766 68.5682 70.1628C68.6452 70.149 68.7243 70.1503 68.8009 70.1666C70.2551 70.4959 71.5742 71.2489 72.5856 72.3269C73.597 73.405 74.2536 74.7579 74.4693 76.2085C74.4896 76.3619 74.4471 76.5169 74.3512 76.6396C74.2554 76.7623 74.1139 76.8426 73.9578 76.863L73.9043 76.8688Z" fill="#093F68"/>
<path id="Vector_31" d="M71.5963 25.6408C69.5692 25.183 67.4666 25.1493 65.4253 25.5419C63.3841 25.9345 61.4497 26.7447 59.7479 27.9197C54.7457 31.2679 51.6765 36.2464 49.3806 41.3125C49.2974 41.5012 49.2816 41.7121 49.3359 41.9107C49.3901 42.1094 49.5111 42.2842 49.6793 42.4067C49.8474 42.5293 50.0528 42.5923 50.2621 42.5857C50.4713 42.579 50.6721 42.5031 50.8319 42.3701C52.5789 40.7522 54.7867 39.6963 57.1605 39.3433C61.8119 38.794 63.7569 40.7106 63.7569 40.7106L71.5963 25.6408Z" fill="#F56132"/>
<path id="Vector_32" d="M50.2311 43.1882C49.9069 43.1861 49.592 43.0816 49.3329 42.8902C49.046 42.6929 48.8391 42.4024 48.7488 42.07C48.6585 41.7375 48.6905 41.3844 48.8392 41.0729C50.6712 37.0293 53.7642 31.2152 59.4148 27.4346C61.1881 26.2079 63.2065 25.3652 65.3362 24.9623C67.4659 24.5594 69.6585 24.6054 71.7688 25.0973C71.8519 25.1222 71.9284 25.1646 71.9931 25.2217C72.0577 25.2787 72.1088 25.349 72.1428 25.4275C72.1768 25.506 72.1929 25.5909 72.19 25.6762C72.187 25.7615 72.165 25.8451 72.1257 25.9212L64.2862 40.9911C64.2437 41.0743 64.1816 41.1464 64.1051 41.2013C64.0285 41.2562 63.9397 41.2923 63.846 41.3066C63.7532 41.32 63.6585 41.3116 63.5696 41.2822C63.4807 41.2527 63.4001 41.203 63.3345 41.1372C63.3345 41.1372 61.4906 39.4368 57.2319 39.9685C54.9768 40.2976 52.8805 41.3039 51.2303 42.8493C50.9497 43.0768 50.5948 43.1971 50.2311 43.1882ZM68.4082 25.8628C65.4345 25.8626 62.5309 26.749 60.081 28.4046C54.6861 32.0099 51.7002 37.637 49.9218 41.5462C49.8886 41.6156 49.8817 41.6944 49.9024 41.7683C49.9231 41.8423 49.9701 41.9065 50.0348 41.9494C50.0904 41.9983 50.1624 42.0253 50.237 42.0253C50.3116 42.0253 50.3836 41.9983 50.4393 41.9494C52.2692 40.2437 54.5925 39.1372 57.0891 38.7823C60.5271 38.3733 62.591 39.2556 63.5427 39.8458L70.716 26.0673C69.9542 25.9332 69.182 25.8648 68.4082 25.8628Z" fill="#093F68"/>
<path id="Vector_33" d="M88.5958 37.8356C89.6557 39.5934 90.3274 41.5507 90.5672 43.5802C90.807 45.6097 90.6095 47.666 89.9876 49.6157C88.2627 55.3187 84.3608 59.7012 80.1496 63.3883C79.9931 63.5292 79.7919 63.6127 79.58 63.6247C79.3681 63.6367 79.1584 63.5765 78.9864 63.4542C78.8145 63.332 78.6907 63.1552 78.6361 62.9537C78.5814 62.7522 78.5992 62.5383 78.6864 62.3482C79.7245 60.2237 80.0753 57.8378 79.6916 55.5116C78.8113 50.9888 76.3667 49.7501 76.3667 49.7501L88.5958 37.8356Z" fill="#F56132"/>
<path id="Vector_34" d="M79.5489 64.2238C79.2231 64.2209 78.9065 64.1166 78.6448 63.9258C78.3621 63.7293 78.158 63.4419 78.0679 63.1134C77.9777 62.7848 78.0072 62.4356 78.1512 62.1261C79.1474 60.1119 79.486 57.8446 79.1207 55.6342C78.3177 51.4913 76.1467 50.2934 76.105 50.2817C76.0218 50.2392 75.9499 50.1779 75.8954 50.1028C75.8409 50.0278 75.8052 49.9412 75.7912 49.85C75.7773 49.7588 75.7856 49.6657 75.8153 49.5782C75.845 49.4908 75.8954 49.4114 75.9623 49.3468L88.1914 37.4323C88.2531 37.3714 88.3278 37.3246 88.41 37.2954C88.4923 37.2661 88.5801 37.255 88.6672 37.2628C88.7539 37.2709 88.8377 37.2976 88.9127 37.3411C88.9878 37.3845 89.0522 37.4435 89.1014 37.5141C90.215 39.3413 90.9217 41.3797 91.175 43.4948C91.4282 45.61 91.2222 47.7538 90.5706 49.785C88.6256 56.2127 83.9267 60.8873 80.5601 63.809C80.2881 64.0672 79.9271 64.2153 79.5489 64.2238ZM77.3006 49.6915C78.1571 50.4044 79.6382 52.0698 80.2746 55.4121C80.6847 57.8572 80.3171 60.3671 79.2218 62.5994C79.1882 62.6644 79.1805 62.7394 79.2003 62.8097C79.2201 62.88 79.266 62.9404 79.3289 62.9792C79.3874 63.0293 79.4624 63.057 79.54 63.057C79.6177 63.057 79.6927 63.0293 79.7512 62.9792C83.0047 60.1277 87.549 55.6225 89.4107 49.4812C90.513 45.933 90.1762 42.1036 88.4709 38.7938L77.3006 49.6915Z" fill="#093F68"/>
<path id="Vector_35" d="M95.4954 31.7937C88.5898 41.0787 81.928 46.8753 75.5577 50.4572L63.3286 41.6923C64.8751 34.6803 68.4677 26.6458 75.3733 17.3666C77.8606 13.9958 80.8271 10.993 84.1823 8.44971C93.8716 1.14558 103.275 0.596313 103.275 0.596313C103.275 0.596313 105.607 9.56578 101.461 20.855C100.012 24.7615 98.0035 28.4448 95.4954 31.7937Z" fill="#FFBC0E"/>
<path id="Vector_36" d="M75.5578 51.0415C75.4312 51.0402 75.3082 50.9993 75.2069 50.9246L62.9778 42.1597C62.8866 42.094 62.8164 42.0042 62.7753 41.9007C62.7342 41.7972 62.724 41.6843 62.7458 41.5753C64.4767 33.7161 68.45 25.6874 74.8917 17.0335C77.4124 13.62 80.4167 10.578 83.8137 7.99973C93.5386 0.666389 102.847 0.0469972 103.234 0.0294673C103.369 0.0252686 103.501 0.0663839 103.61 0.146042C103.718 0.2257 103.795 0.339151 103.829 0.467715C103.924 0.835843 106.154 9.73519 101.997 21.0654C100.532 25.0316 98.4947 28.7705 95.9476 32.1676C89.5119 40.8274 82.9274 46.9862 75.8314 50.9889C75.7458 51.0275 75.652 51.0455 75.5578 51.0415ZM63.9949 41.4293L75.5935 49.756C82.4159 45.8293 88.7743 39.8223 95.0137 31.4489C97.4902 28.1391 99.473 24.4991 100.902 20.6388C103.245 14.4371 103.901 7.74249 102.806 1.21566C96.1439 2.17539 89.8509 4.82144 84.5453 8.89376C81.2351 11.4056 78.3069 14.3689 75.8493 17.6938C69.6098 26.0789 65.7317 33.8505 63.9949 41.4293Z" fill="#093F68"/>
<path id="Vector_37" d="M73.1369 56.0141L58.6714 45.6305L63.3406 41.6863L75.5459 50.4454L73.1369 56.0141Z" fill="#093F68"/>
<path id="Vector_38" d="M73.1429 56.5986C73.0169 56.5991 72.894 56.5602 72.792 56.4876L58.3205 46.1041C58.2502 46.0499 58.1923 45.9818 58.1503 45.9044C58.1083 45.8269 58.0832 45.7417 58.0766 45.6541C58.0731 45.5658 58.09 45.4779 58.126 45.3969C58.1621 45.3159 58.2164 45.2441 58.2848 45.1867L62.954 41.2424C63.0595 41.1595 63.1906 41.1143 63.3257 41.1143C63.4609 41.1143 63.592 41.1595 63.6975 41.2424L75.8968 50.0074C76.0054 50.0853 76.0839 50.197 76.1195 50.3243C76.1552 50.4517 76.1459 50.5871 76.0931 50.7086L73.7139 56.2773C73.6783 56.3583 73.6245 56.4304 73.5565 56.488C73.4886 56.5457 73.4081 56.5875 73.3214 56.6103C73.2617 56.6173 73.2012 56.6133 73.1429 56.5986ZM59.6291 45.5899L72.8872 55.1086L74.8143 50.6443L63.3763 42.4286L59.6291 45.5899Z" fill="#093F68"/>
<path id="Vector_39" d="M86.0621 30.0874C89.6394 30.0874 92.5395 27.2385 92.5395 23.7241C92.5395 20.2097 89.6394 17.3607 86.0621 17.3607C82.4847 17.3607 79.5847 20.2097 79.5847 23.7241C79.5847 27.2385 82.4847 30.0874 86.0621 30.0874Z" fill="#68E1FD"/>
<path id="Vector_40" d="M86.0501 30.6717C84.4612 30.6686 82.9196 30.14 81.6739 29.171C80.4282 28.202 79.551 26.8491 79.1836 25.3304C78.8162 23.8118 78.9801 22.2158 79.6489 20.7999C80.3176 19.3839 81.4523 18.2304 82.8699 17.5254C84.2875 16.8204 85.9055 16.6049 87.4631 16.9137C89.0206 17.2224 90.4269 18.0375 91.4553 19.2274C92.4837 20.4173 93.0742 21.9128 93.1317 23.4727C93.1891 25.0327 92.7102 26.5662 91.7721 27.826C91.1151 28.7108 90.2539 29.43 89.2593 29.9246C88.2647 30.4193 87.1649 30.6753 86.0501 30.6717ZM86.0918 17.9684C84.6929 17.9677 83.3397 18.4571 82.2754 19.3488C81.2111 20.2405 80.5054 21.4759 80.2852 22.833C80.0651 24.19 80.3449 25.5797 81.0743 26.7522C81.8038 27.9248 82.9351 28.8032 84.2648 29.2297C85.5946 29.6562 87.0356 29.6027 88.3288 29.0788C89.622 28.555 90.6825 27.5952 91.3199 26.3719C91.9572 25.1486 92.1294 23.7422 91.8056 22.4053C91.4819 21.0684 90.6833 19.8889 89.5535 19.0786C88.5482 18.3582 87.3362 17.9695 86.0918 17.9684Z" fill="#093F68"/>
<path id="Vector_41" d="M101.461 20.8376L84.2122 8.43225C93.9014 1.12813 103.305 0.578857 103.305 0.578857C103.305 0.578857 105.607 9.54833 101.461 20.8376Z" fill="#F56132"/>
<path id="Vector_42" d="M101.461 21.4218C101.336 21.42 101.213 21.3813 101.11 21.3108L83.8314 8.90548C83.7576 8.85106 83.6976 8.78048 83.6563 8.69934C83.615 8.6182 83.5935 8.52874 83.5935 8.43802C83.5935 8.34731 83.615 8.25784 83.6563 8.1767C83.6976 8.09556 83.7576 8.02498 83.8314 7.97056C93.5564 0.637212 102.865 0.0178224 103.252 0.000292452C103.387 -0.0039062 103.519 0.0372091 103.627 0.116867C103.735 0.196525 103.813 0.309976 103.846 0.43854C103.942 0.806668 106.172 9.70602 102.014 21.0362C101.984 21.1214 101.934 21.1984 101.867 21.2613C101.801 21.3241 101.721 21.3711 101.634 21.3985C101.578 21.4145 101.52 21.4224 101.461 21.4218ZM85.1816 8.42633L101.164 19.9026C103.292 13.9023 103.857 7.47373 102.806 1.20401C96.4086 2.12591 90.3491 4.60909 85.1816 8.42633Z" fill="#093F68"/>
<path id="Vector_43" d="M79.8849 34.2507C80.3229 33.6618 80.1932 32.8364 79.5951 32.407C78.997 31.9776 78.1571 32.1069 77.719 32.6957L63.4667 51.8544C63.0286 52.4432 63.1584 53.2687 63.7564 53.6981C64.3545 54.1275 65.1944 53.9982 65.6325 53.4093L79.8849 34.2507Z" fill="#FFBC0E"/>
<path id="Vector_44" d="M64.5541 54.5357C64.197 54.5341 63.8473 54.4357 63.5435 54.2513C63.2397 54.0669 62.9937 53.8036 62.8325 53.4906C62.6713 53.1775 62.6013 52.8268 62.6301 52.4771C62.6589 52.1274 62.7854 51.7924 62.9958 51.5088L77.271 32.3487C77.4182 32.1451 77.6058 31.9728 77.8225 31.8423C78.0392 31.7118 78.2805 31.6256 78.5319 31.589C78.9111 31.5291 79.2998 31.5815 79.6486 31.7396C79.9973 31.8976 80.2902 32.1541 80.4899 32.4763C80.6897 32.7985 80.7872 33.1719 80.77 33.5488C80.7529 33.9257 80.6219 34.289 80.3937 34.5925L66.1185 53.7527C65.815 54.1605 65.3595 54.4336 64.8515 54.5123C64.7529 54.5257 64.6536 54.5335 64.5541 54.5357ZM78.8293 32.7343H78.7104C78.6131 32.75 78.52 32.7845 78.4363 32.8356C78.3526 32.8867 78.28 32.9536 78.2226 33.0323L63.9475 52.1925C63.8895 52.27 63.8477 52.3579 63.8244 52.4512C63.8011 52.5446 63.7967 52.6416 63.8117 52.7366C63.8266 52.8316 63.8604 52.9227 63.9113 53.0048C63.9622 53.087 64.029 53.1584 64.108 53.2151C64.2682 53.3304 64.4684 53.3786 64.6647 53.349C64.861 53.3194 65.0373 53.2145 65.1549 53.0573L79.4301 33.8971C79.5129 33.7886 79.5634 33.6596 79.5758 33.5245C79.5882 33.3894 79.562 33.2536 79.5003 33.1322C79.4385 33.0109 79.3436 32.9089 79.2262 32.8376C79.1087 32.7663 78.9734 32.7285 78.8353 32.7285L78.8293 32.7343Z" fill="#093F68"/>
<path id="Vector_45" d="M88.8992 27.8496C88.7709 27.8493 88.6462 27.8083 88.5436 27.7326C88.441 27.657 88.3661 27.5508 88.33 27.4299C88.2939 27.3089 88.2985 27.1798 88.3432 27.0617C88.3879 26.9436 88.4702 26.8428 88.578 26.7745C89.1914 26.2606 89.6467 25.5888 89.8925 24.8345C90.5884 22.988 89.149 21.4045 89.0895 21.3285C88.9822 21.2146 88.9254 21.0635 88.9316 20.9084C88.9377 20.7534 89.0063 20.6071 89.1222 20.5017C89.2382 20.3963 89.392 20.3405 89.5498 20.3465C89.7077 20.3525 89.8566 20.4199 89.9639 20.5338C90.0471 20.6215 91.9624 22.6958 91.0048 25.2085C90.6796 26.2027 90.058 27.0781 89.2204 27.7211C89.1287 27.7943 89.0169 27.8391 88.8992 27.8496Z" fill="white"/>
<path id="Vector_46" d="M86.6152 28.9129C86.4574 28.9222 86.3024 28.8695 86.1842 28.7665C86.0659 28.6635 85.9942 28.5186 85.9847 28.3636C85.9752 28.2086 86.0288 28.0563 86.1337 27.9401C86.2385 27.824 86.3861 27.7535 86.5438 27.7442C86.9299 27.6772 87.3071 27.5674 87.668 27.417C87.8106 27.3643 87.9683 27.3675 88.1086 27.4257C88.2489 27.4839 88.3612 27.5928 88.4222 27.7299C88.4832 27.867 88.4884 28.0219 88.4366 28.1626C88.3848 28.3034 88.28 28.4192 88.1438 28.4863C87.6787 28.6824 87.1915 28.8236 86.6925 28.907L86.6152 28.9129Z" fill="white"/>
<path id="Vector_47" d="M19.9322 39.0568C19.8029 39.0591 19.6764 39.0199 19.5718 38.9451C19.4673 38.8704 19.3903 38.7643 19.3527 38.6427C19.315 38.5212 19.3187 38.3909 19.3632 38.2716C19.4077 38.1524 19.4905 38.0506 19.5991 37.9817L22.359 36.1878C22.4241 36.145 22.4973 36.1153 22.5741 36.1003C22.651 36.0854 22.7302 36.0855 22.807 36.1007C22.8838 36.1159 22.9568 36.1459 23.0218 36.1889C23.0868 36.2319 23.1426 36.2872 23.1858 36.3514C23.2719 36.4802 23.3026 36.6372 23.2715 36.7883C23.2403 36.9393 23.1496 37.0721 23.0192 37.1578L20.2593 38.9575C20.1626 39.0214 20.0488 39.0559 19.9322 39.0568Z" fill="#DFEAEF"/>
<path id="Vector_48" d="M21.4072 40.9327C21.3098 40.9329 21.2138 40.9095 21.1277 40.8647C21.0417 40.8198 20.9681 40.7549 20.9135 40.6756C20.87 40.6116 20.8397 40.5398 20.8245 40.4643C20.8093 40.3887 20.8095 40.311 20.8249 40.2355C20.8404 40.16 20.8709 40.0883 20.9147 40.0244C20.9585 39.9606 21.0147 39.9059 21.0801 39.8634L23.5485 38.2507C23.6802 38.1646 23.8413 38.1336 23.9964 38.1642C24.1514 38.1949 24.2877 38.2849 24.3753 38.4143C24.4628 38.5437 24.4945 38.7019 24.4632 38.8543C24.432 39.0066 24.3405 39.1405 24.2087 39.2265L21.7403 40.8392C21.6412 40.9022 21.5252 40.9347 21.4072 40.9327Z" fill="#DFEAEF"/>
<path id="Vector_49" d="M22.7694 42.8201C22.6423 42.8191 22.5189 42.7782 22.4172 42.7033C22.3155 42.6284 22.2409 42.5235 22.2044 42.4039C22.1678 42.2844 22.1712 42.1564 22.214 42.0389C22.2568 41.9213 22.3368 41.8204 22.4423 41.7507L24.9107 40.138C24.9753 40.0902 25.0492 40.0559 25.1278 40.0371C25.2064 40.0184 25.2881 40.0156 25.3678 40.0289C25.4476 40.0422 25.5237 40.0713 25.5916 40.1145C25.6595 40.1577 25.7177 40.2141 25.7627 40.2802C25.8076 40.3462 25.8384 40.4206 25.8531 40.4987C25.8678 40.5769 25.8661 40.6571 25.8482 40.7346C25.8302 40.8121 25.7964 40.8852 25.7487 40.9494C25.701 41.0136 25.6405 41.0675 25.5709 41.108L23.1025 42.7207C23.004 42.7857 22.888 42.8203 22.7694 42.8201Z" fill="#DFEAEF"/>
<path id="Vector_50" d="M32.9939 32.8631C32.8661 32.8615 32.7423 32.8196 32.6407 32.7435C32.5391 32.6673 32.4651 32.5611 32.4297 32.4405C32.3944 32.3199 32.3995 32.1913 32.4443 32.0738C32.4891 31.9562 32.5713 31.856 32.6786 31.7879L50.9985 20.3759C51.0645 20.3349 51.1381 20.307 51.215 20.2939C51.292 20.2808 51.3708 20.2827 51.4471 20.2995C51.5233 20.3163 51.5954 20.3477 51.6593 20.3919C51.7231 20.4361 51.7775 20.4922 51.8193 20.5571C51.8611 20.6219 51.8895 20.6942 51.9028 20.7698C51.9162 20.8454 51.9142 20.9229 51.8971 20.9978C51.88 21.0726 51.848 21.1435 51.803 21.2062C51.758 21.269 51.7009 21.3224 51.6349 21.3634L33.3151 32.7754C33.2187 32.8341 33.1073 32.8645 32.9939 32.8631Z" fill="#DFEAEF"/>
<path id="Vector_51" d="M62.2997 79.0895C62.2582 79.0953 62.2162 79.0953 62.1748 79.0895C62.0211 79.056 61.8872 78.964 61.8025 78.8336C61.7177 78.7033 61.6891 78.5453 61.7227 78.3942C62.6209 74.3039 58.6952 71.9958 58.5286 71.8964C58.3992 71.8156 58.3065 71.6887 58.27 71.5423C58.2335 71.3959 58.256 71.2414 58.3328 71.1109C58.4095 70.9804 58.5347 70.8841 58.682 70.8421C58.8293 70.8001 58.9875 70.8157 59.1234 70.8855C59.171 70.9147 63.9651 73.7195 62.8766 78.6454C62.8447 78.7721 62.7706 78.8847 62.666 78.9652C62.5615 79.0456 62.4325 79.0894 62.2997 79.0895Z" fill="#093F68"/>
</g>
</svg>
