<svg width="100" height="106" viewBox="0 0 100 106" fill="none" xmlns="http://www.w3.org/2000/svg">
<g id="&#240;&#159;&#166;&#134; illustration &#34;Order Confirmed&#34;">
<path id="Vector" d="M29.2422 0H100V88.6863H29.2422V0Z" fill="#E6E6E6"/>
<path id="Vector_2" d="M47.9539 64.9958H81.0796V77.6099H47.9539V64.9958Z" fill="#FFD200"/>
<path id="Vector_3" opacity="0.09" d="M31.9232 29.468C31.9232 29.468 39.0457 30.552 37.7774 35.4877C36.9217 38.5571 35.2491 41.3287 32.9428 43.4987V54.5902L43.363 66.5488L46.7999 59.4906L56.4542 64.028C56.4542 64.028 49.0879 81.8752 50.8636 88.6964H37.7774L25.875 61.7946L27.2229 38.6033L31.9232 29.468Z" fill="black"/>
<path id="Vector_4" d="M48.5308 63.5542C48.5308 63.5542 54.201 64.3861 50.8138 70.3956C47.4266 76.4052 44.89 95.3564 34.813 90.7686L48.5308 63.5542Z" fill="#F4A28C"/>
<path id="Vector_5" opacity="0.09" d="M48.5308 63.5542C48.5308 63.5542 54.201 64.3861 50.8138 70.3956C47.4266 76.4052 44.89 95.3564 34.813 90.7686L48.5308 63.5542Z" fill="black"/>
<path id="Vector_6" d="M26.6359 32.7903L23.3184 44.6581L29.9037 46.0446L29.6749 36.8487L26.6359 32.7903Z" fill="#F4A28C"/>
<path id="Vector_7" opacity="0.31" d="M29.8093 38.8605C29.0103 38.5467 28.3189 38.0035 27.8198 37.2976C27.8198 37.2976 27.6506 39.5512 29.8093 42.0569V38.8605Z" fill="#CE8172"/>
<path id="Vector_8" d="M33.4551 33.1332C33.4551 33.1332 33.1268 36.8841 32.0823 39.2335C31.9804 39.4611 31.8351 39.6661 31.6547 39.8366C31.4744 40.007 31.2625 40.1397 31.0314 40.2268C30.8002 40.314 30.5543 40.3539 30.3079 40.3444C30.0615 40.3349 29.8193 40.276 29.5954 40.1712C28.4365 39.6217 27.0289 38.5377 26.9642 36.506L26.4519 33.0676C26.4184 32.368 26.5999 31.6751 26.9714 31.0845C27.3429 30.4939 27.8861 30.0348 28.526 29.7705C30.8438 28.6411 33.7734 30.8594 33.4551 33.1332Z" fill="#F4A28C"/>
<path id="Vector_9" d="M26.4518 45.3186L29.9335 46.0446C29.9335 46.0446 44.2582 54.6153 43.7508 65.7067C43.2435 76.7982 36.2553 89.7802 36.2553 89.7802H11.8834C11.8834 89.7802 -4.9331 49.7905 26.4518 45.3186Z" fill="#68E1FD"/>
<path id="Vector_10" d="M44.4897 56.4524L51.2498 59.1958L46.3543 71.5894L39.5943 68.846L44.4897 56.4524Z" fill="#FFD200"/>
<path id="Vector_11" opacity="0.09" d="M22.6817 52.6188C22.6817 52.6188 30.4111 54.6909 30.5354 64.8598C30.6598 75.0286 29.7744 81.7238 37.7773 81.0785L17.6432 89.7601H11.8437C11.8437 89.7601 8.25761 81.4617 7.71546 72.1953C7.17332 62.9289 16.7281 51.1921 22.6817 52.6188Z" fill="black"/>
<path id="Vector_12" d="M11.8438 89.7603L10.854 105.792L42.4727 104.89L36.2255 89.7603H11.8438Z" fill="#24285B"/>
<g id="Group">
<path id="Vector_13" d="M29.0136 35.6088C29.0136 35.6088 29.2374 34.177 28.1581 34.0963C27.0787 34.0156 26.7505 36.0827 28.1581 36.5364L29.0136 35.6088Z" fill="#F4A28C"/>
<path id="Vector_14" d="M16.5838 50.8797C16.5838 50.8797 22.7862 49.6243 24.9846 56.3952C27.183 63.166 25.0244 82.2181 29.6849 83.8768C34.3454 85.5355 44.2731 68.8832 44.2731 68.8832C44.2731 68.8832 44.1786 63.4635 47.8046 61.9157C51.4305 60.3679 49.1425 68.495 47.2326 70.4309C45.3226 72.3669 40.2642 94.4187 25.4571 93.9499C10.65 93.481 4.56699 56.496 16.5838 50.8797Z" fill="#F4A28C"/>
<path id="Vector_15" d="M33.1267 35.4878L33.9126 37.0961C33.956 37.1875 33.976 37.2884 33.9708 37.3897C33.9656 37.491 33.9354 37.5894 33.8829 37.6757C33.8304 37.7621 33.7573 37.8337 33.6704 37.8839C33.5834 37.9341 33.4854 37.9614 33.3854 37.9632H31.938L33.1267 35.4878Z" fill="#F4A28C"/>
</g>
<path id="Vector_16" d="M33.4799 28.2681C33.4799 28.2681 37.0959 32.5787 32.4155 33.4811C27.7351 34.3835 26.7702 35.2356 27.2228 40.0351C27.6754 44.8347 29.5207 49.2562 23.3183 52.271C17.116 55.2859 22.4429 60.3376 21.3288 66.2312C20.2147 72.1248 14.7236 76.2034 7.74028 72.1853C0.757013 68.1671 -3.56525 57.8622 3.93032 51.6862C11.4259 45.5103 20.8414 44.0281 20.8414 34.0811C20.8414 24.134 28.6404 23.6349 33.4799 28.2681Z" fill="#24285B"/>
<path id="Vector_17" d="M64.1684 53.9902C73.0521 53.9902 80.2538 46.6905 80.2538 37.6858C80.2538 28.6811 73.0521 21.3813 64.1684 21.3813C55.2847 21.3813 48.083 28.6811 48.083 37.6858C48.083 46.6905 55.2847 53.9902 64.1684 53.9902Z" fill="#68E1FD"/>
<path id="Vector_18" d="M38.1504 10.4663C39.5651 10.4663 40.7119 9.30381 40.7119 7.86985C40.7119 6.43589 39.5651 5.27344 38.1504 5.27344C36.7357 5.27344 35.5889 6.43589 35.5889 7.86985C35.5889 9.30381 36.7357 10.4663 38.1504 10.4663Z" fill="#FFD200"/>
<path id="Vector_19" d="M45.3723 10.4663C46.787 10.4663 47.9338 9.30381 47.9338 7.86985C47.9338 6.43589 46.787 5.27344 45.3723 5.27344C43.9576 5.27344 42.8108 6.43589 42.8108 7.86985C42.8108 9.30381 43.9576 10.4663 45.3723 10.4663Z" fill="#68E1FD"/>
<path id="Vector_20" d="M52.281 10.4663C53.6957 10.4663 54.8425 9.30381 54.8425 7.86985C54.8425 6.43589 53.6957 5.27344 52.281 5.27344C50.8663 5.27344 49.7195 6.43589 49.7195 7.86985C49.7195 9.30381 50.8663 10.4663 52.281 10.4663Z" fill="#24285B"/>
<path id="Vector_21" d="M57.3345 37.6857L62.2834 44.3456L70.2864 31.54" stroke="white" stroke-width="8.77837" stroke-linecap="round" stroke-linejoin="round"/>
</g>
</svg>
